<?xml version="1.0" standalone="no"?>
<!DOCTYPE svg PUBLIC "-//W3C//DTD SVG 1.1//EN" "http://www.w3.org/Graphics/SVG/1.1/DTD/svg11.dtd" >
<svg xmlns="http://www.w3.org/2000/svg">
<metadata>
This is a custom SVG webfont generated by Font Squirrel.
Copyright   : Generated by Fontographer 41
</metadata>
<defs>
<font id="BosoxRegular" horiz-adv-x="819" >
<font-face units-per-em="2048" ascent="1638" descent="-410" />
<missing-glyph horiz-adv-x="512" />
<glyph unicode=" "  horiz-adv-x="512" />
<glyph unicode="&#x09;" horiz-adv-x="512" />
<glyph unicode="&#xa0;" horiz-adv-x="512" />
<glyph unicode="!" horiz-adv-x="432" d="M188 1057q0 8 10.5 37.5t12.5 35.5q4 18 4 46v26q-2 18 -2 27q0 104 113 104q55 0 81.5 -30.5t30.5 -92.5q2 -53 2 -104q0 -8 11.5 -26.5t11.5 -26.5q0 -4 -16.5 -26.5t-18.5 -31.5q-51 -229 -51 -346q0 -25 4 -37q14 -41 -4 -41q-121 0 -115 2q6 16 6 86q0 145 -51 334 q-2 8 -15.5 31t-13.5 33zM219 307q0 156 105 156q102 0 102 -141q0 -51 -25 -86q-29 -41 -77 -41q-43 0 -74 34.5t-31 77.5z" />
<glyph unicode="&#x22;" horiz-adv-x="1228" d="M201 1114q0 6 10 20.5t12 20.5q0 39 23 127q8 18 35.5 31.5t50.5 13.5q16 0 43.5 -12t36.5 -27q18 -33 32 -100q12 -55 13 -74q0 -8 -10.5 -26.5t-12.5 -24.5t-2 -35q0 -43 21.5 -68.5t43 -50t21.5 -51.5q0 -20 -16 -37q2 33 -10 51q-8 12 -41 39t-39 27l-26 -18 q-26 -18 -54 -19q-102 0 -109 168q0 4 -11 20.5t-11 24.5zM530 1114q0 6 10.5 20.5t12.5 20.5q0 39 22 127q6 18 35 31.5t52 13.5q16 0 43.5 -12t35.5 -27q16 -33 33 -100q12 -55 12 -74q0 -8 -10 -26.5t-12 -24.5t-2 -35q0 -43 21.5 -68.5t43 -50t21.5 -51.5q0 -20 -17 -37 q2 33 -10 51q-8 12 -40.5 39t-39.5 27l-25 -18q-26 -18 -54 -19q-104 0 -109 168q0 4 -11.5 20.5t-11.5 24.5z" />
<glyph unicode="#" horiz-adv-x="1415" d="M57 287q8 31 107 88l4 14q-53 2 -53 45q0 18 8 45h31q37 -45 127 -45h151l72 252h-49h-52q-133 0 -227 -61q-16 10 -12 24q8 31 106 88l4 17q-53 0 -53 45q0 16 8 43h31q37 -45 127 -45q2 0 150 2q18 57 36 116q18 70 19 117q0 51 -21 92q16 20 31 21q31 0 64 -82h16 q23 72 109 72l-9 -31q-59 -49 -86 -139q0 -4 -47 -164l252 2l37 115q18 68 18 114q0 51 -20 92q16 20 31 21q31 0 63 -82h17q20 72 108 72l-8 -31q-59 -49 -86 -139q-2 -2 -45 -160h49q39 -2 51 -2q137 0 242 53h10l-10 -35q-2 -6 -98 -67q25 -29 59 -97l-16 -2 q-72 37 -162 37q2 0 -158 -2l-72 -250h53h46q135 0 239 52h13l-11 -35q-2 -4 -98 -66q25 -31 59 -96l-16 -4q-72 37 -162 37l-153 -2l-7 -21q-47 -160 -47 -213q0 -41 13 -80l-4 -12h-35q-6 0 -43 80q-39 -33 -123 -88l2 14q49 68 80 154q8 25 49 166l-252 -2l-6 -23 q-45 -158 -45 -209q0 -41 12 -80l-4 -12h-35q-4 0 -43 80q-39 -33 -121 -88v14q49 68 80 152q8 25 49 164h-53q-37 2 -51 2q-133 0 -227 -64q-17 11 -13 27zM547 436l252 2l71 252l-252 -4z" />
<glyph unicode="$" horiz-adv-x="886" d="M213 283q0 16 25 39q23 16 43 32q-12 25 -31 74l8 45q135 -158 317 -158q180 0 181 158q0 76 -55.5 127t-133.5 51q-27 0 -41 -6q-8 39 -67 84q-45 31 -92 64q-55 55 -74 92q-25 47 -25 116q0 135 89 224.5t225 89.5q61 0 149 -35q98 -41 146 -45q-23 -25 -48 -70 q-6 -47 -14 -94q-23 25 -63 66q-61 51 -146 51q-162 0 -162 -150q0 -68 47.5 -111.5t114.5 -43.5q27 0 51 6q12 -43 72 -84q49 -29 98 -60q123 -84 123 -231q0 -160 -100 -242q-92 -78 -254 -77h-72q-29 0 -128 38.5t-128 38.5q-35 0 -47 -6q-8 3 -8 17zM541 1473q0 4 2 16 q4 0 10 5t10 5q8 0 35 -57q4 0 8 20l6 19q10 18 21 18q4 0 10 -4t8 -4q2 -25 -4 -82q-6 -84 -8 -92q-4 -84 -4 -201q0 -139 4 -225q2 -20 9 -67.5t7 -55.5q0 -10 -4 -30.5t-4 -26.5q-12 -131 -12 -273q0 -129 4 -219q2 -18 9 -87t7 -77q0 -18 -4 -24q-10 -18 -18 -19 q-2 0 -16.5 28t-18.5 28l-13 -24q-13 -24 -24 -24q-8 0 -18 9q-2 23 4 90t8 92q6 66 6 217q0 137 -6 217q-2 29 -7 79t-5 44q0 8 6 58.5t6 64.5q6 90 6 217q0 211 -20 365z" />
<glyph unicode="%" horiz-adv-x="1083" d="M47 1077q0 82 58.5 146.5t140.5 64.5q100 0 164 -82q57 -74 57 -176q0 -106 -60.5 -175t-164.5 -69q-98 0 -152 101q-43 81 -43 190zM111 1075q10 -10 11 -35.5t9 -35.5q0 -51 37 -121q41 -78 86 -78q74 0 113 82q27 59 26 145q0 90 -20 115q-4 10 -27 41q-18 25 -16 37 q-12 4 -28.5 24.5t-43.5 20.5q-55 0 -94 -72q-33 -61 -33 -123h-20zM195 0l501 1294h76l-502 -1294h-75zM553 291q0 82 59.5 146.5t139.5 64.5q104 0 166 -84q55 -74 55 -182q0 -80 -73 -158t-152 -78q-98 0 -152 100q-43 82 -43 191zM616 289q10 -10 11.5 -36t9.5 -36 q2 -51 37 -121q41 -78 86 -78q76 0 112 82q29 59 29 146q0 90 -22 114q-2 10 -27 41q-18 25 -16 37q-12 4 -28.5 24.5t-43.5 20.5q-55 0 -94 -71q-33 -61 -33 -123h-21z" />
<glyph unicode="&#x26;" horiz-adv-x="1132" d="M213 520q20 55 63 152q27 45 138 141q-39 39 -69 136.5t-52 125.5q23 18 29 37q80 221 272 221q217 0 254 -209q4 -20 35 -49q-23 -43 -82 -155q-16 -31 -125 -125q51 -57 205 -211h10q33 59 33 137q0 35 -6 72q-4 10 -15 24v21q27 14 41 14q12 0 82 -37q8 0 23.5 10.5 t19.5 12.5q82 14 68 14q20 0 63 -14q-57 -51 -78 -95q-29 -59 -65 -165q-33 -94 -33 -111q0 -31 72 -57q55 -20 73 -21q43 0 43 -12t-22.5 -46t-34.5 -44q-41 -33 -98 -33q-8 0 -22.5 3t-22.5 3q-10 0 -33 -59l-28 42q-28 42 -46 42q-8 0 -51 -29q-51 -33 -57 -37 q-63 -31 -191 -31q-229 0 -330 179q-14 43 -40 127q-5 8 -23 26zM438 520q0 -84 60 -131q53 -43 139 -43q25 0 80 19q70 23 69 45q0 12 -125.5 136t-136.5 124q-29 0 -57.5 -58.5t-28.5 -91.5zM506 1065q0 -39 41 -121q12 -25 26 -24q18 0 59.5 37.5t48.5 58t7 55.5 q0 98 -88 98q-94 0 -94 -104z" />
<glyph unicode="'" horiz-adv-x="614" d="M201 1114q0 6 10 20.5t12 20.5q0 39 23 127q8 18 35.5 31.5t50.5 13.5q16 0 43.5 -12t36.5 -27q18 -33 32 -100q12 -55 13 -74q0 -8 -10.5 -26.5t-12.5 -24.5t-2 -35q0 -43 21.5 -68.5t43 -50t21.5 -51.5q0 -20 -16 -37q2 33 -10 51q-8 12 -41 39t-39 27l-26 -18 q-26 -18 -54 -19q-102 0 -109 168q0 4 -11 20.5t-11 24.5z" />
<glyph unicode="(" horiz-adv-x="401" d="M158 752q0 8 15 33.5t15 33.5v279q0 68 86 155q82 82 152 99q0 -12 -2 -17q-88 -90 -107 -192q-6 -33 -6 -185q0 -121 6 -163q25 -49 25 -43q0 -6 -11.5 -21.5t-13.5 -21.5q-6 -45 -6 -162q0 -137 17 -205q27 -109 102 -172v-12q-92 27 -162 98q-80 80 -80 168v266 q0 6 -15 30t-15 32z" />
<glyph unicode=")" horiz-adv-x="460" d="M217 166q90 70 113 215q12 80 12 176q0 111 -2 139q-2 8 -15.5 30t-13.5 28t13.5 25.5t15.5 30.5t2 155q0 141 -8 184q-23 119 -115 201h21q31 0 116 -68q45 -37 79 -102.5t34 -122.5v-258q0 -6 12.5 -21.5t12.5 -23.5q0 -6 -12.5 -21.5t-12.5 -23.5v-213 q0 -115 -70.5 -208t-181.5 -122z" />
<glyph unicode="*" horiz-adv-x="579" d="M213 1169q8 23 41 35q4 18 4 49q39 -41 119 -118q-94 28 -164 34zM219 1030v23q102 6 158 34q-39 -43 -119 -124q-2 2 -2 55zM256 1178q61 0 49 -4q-12 31 -31 30q0 -8 -18 -26zM264 1047q6 -14 19 -37q27 27 26 37h-45zM367 903q14 23 51 168q10 -57 57 -168 q-8 0 -27.5 8.5t-27.5 8.5q-6 0 -19 -11q-18 -12 -20 -14q-10 8 -14 8zM373 1321h22q12 -25 25 -25q2 0 26 25h23q-18 -53 -43 -156q-2 -4 -10 -14q-4 35 -43 170zM395 1110q0 6 23 29q0 -14 26 -27q-4 -6 -26 -29q-23 21 -23 27zM403 938h35q0 6 -20 47q-5 -12 -15 -47z M410 1237q12 2 28 41h-28v-41zM463 1081q96 -20 158 -37q-10 -8 -35 -32q-2 -12 -2 -49q-39 40 -121 118zM467 1133q72 78 108 127q16 0 24.5 -39t21.5 -47q-82 -14 -154 -41zM524 1044l19 -18l14 -16q8 12 23 28zM530 1178h45q-4 0 -18 28z" />
<glyph unicode="," horiz-adv-x="489" d="M207 401q0 -6 22 39q0 41 23 129q23 45 86 45q18 0 45 -12t35 -27q14 -25 29.5 -85t15.5 -89q0 4 -23 -51q-2 -6 -2 -35q0 -53 43 -95t43 -75q0 -20 -16 -36q4 55 -51 94q-29 20 -39 20l-32 -17q-32 -17 -48 -18q-102 0 -109 166q0 6 -11 22.5t-11 24.5z" />
<glyph unicode="." horiz-adv-x="432" d="M207 401q0 -6 22 39l17 111q18 63 90 63q25 0 56.5 -20.5t37.5 -42.5q0 -31 4 -74q2 -10 15.5 -40.5t13.5 -39.5q0 -6 -10.5 -24.5t-12.5 -24.5q-2 -25 -10 -90q-2 -27 -35 -48.5t-59 -21.5q-102 0 -107 166q0 6 -11 22.5t-11 24.5z" />
<glyph unicode="/" horiz-adv-x="573" d="M221 33l379 1364l14 -35l-393 -1401v72z" />
<glyph unicode="0" horiz-adv-x="841" d="M164 764q0 8 15.5 30.5t15.5 30.5v181q0 33 24.5 100.5t44.5 95.5q96 131 268 131q53 0 127 -26q94 -35 129 -86q84 -123 84 -183v-202q0 -6 14.5 -36t14.5 -36q0 -8 -14.5 -37t-14.5 -37v-213q0 -43 -43 -128t-77 -105q-92 -55 -215 -56q-209 0 -291 138 q-16 27 -33.5 86t-17.5 90v200q0 6 -15.5 30t-15.5 32zM395 584q0 -117 8 -146q27 -92 129 -92t132 84q12 35 12 152q0 102 -8 133q-2 8 -12.5 25.5t-10.5 23.5q0 8 11.5 26.5t11.5 20.5q8 37 8 127q0 115 -12 149q-29 82 -132 82q-98 0 -126 -88q-10 -33 -11 -141 q0 -104 2 -123q2 -6 12.5 -26.5t10.5 -26.5q0 -8 -10.5 -27.5t-12.5 -27.5q-2 -14 -2 -125z" />
<glyph unicode="1" horiz-adv-x="495" d="M170 1237q10 27 104.5 64.5t131.5 37.5h110q10 -10 6 -26q-53 -186 -53 -303q0 -68 14 -136q2 -14 21.5 -60t19.5 -54q0 -4 -19.5 -55.5t-21.5 -63.5q-14 -63 -14 -133t25 -174q20 -86 36 -119q-18 -20 -57 -20q-33 0 -64.5 20.5t-33.5 20.5q-6 0 -15 -7q-10 -12 -14 -16 q-31 -18 -72 -18q-8 0 -24.5 3t-22.5 3q-4 16 12.5 67t20.5 70q14 49 14 170v90q-4 41 -32 121q-2 4 -12.5 17.5t-10.5 21.5q0 6 19.5 43t21.5 49q14 63 14 145q0 174 -104 242z" />
<glyph unicode="2" d="M219 223q0 2 41 66q23 35 55 98q10 33 78 143q55 92 56 142q0 37 -23 67q74 41 129 127t55 166q0 137 -149 137q-104 0 -154 -67q-14 27 -14 49q0 10 12 45t12 45q0 8 -14 26.5t-16 24.5q12 -2 57 -2l238 43q254 -10 254 -211q0 -66 -29 -135q-12 -33 -68 -139 q-8 -14 -12 -49q-4 -29 10 -105q-29 -2 -78 -55q-18 -20 -73.5 -115.5t-55.5 -113.5q0 -63 132 -64q141 0 186 70q10 2 16 2q12 -39 13 -53q0 -12 -11.5 -45t-11.5 -44q0 -8 10 -24q10 -23 13 -27q-51 4 -154 -14q-111 -23 -156 -23q-41 0 -120.5 24t-69.5 24l-38 -18 q-38 -17 -65 -17q-31 0 -43 6t-12 16z" />
<glyph unicode="3" horiz-adv-x="825" d="M215 201v22q10 0 21 17q-16 82 -17 75q0 12 13.5 54.5t21.5 50.5q113 -98 246 -98q152 0 151 122q0 23 -12 46.5t-12 25.5q2 8 16 29q8 16 8 51q0 111 -137 111q-45 0 -53 -5q-18 -4 -74 -32h-20q4 29 34 69q-10 14 -34 54v28q53 -33 69 -39q29 -10 78 -10q139 0 139 105 q0 29 -12 63q0 2 5 6t5 12l-8 7q8 33 8 61q0 119 -157 119q-152 0 -197 -86q-4 0 -16 2q-18 37 -19 72q0 37 31 88q-12 14 -37 36q10 0 30.5 -2t30.5 -2q31 0 111 28t111 28q193 0 262 -105q23 -35 36 -114.5t29 -100.5q-16 -16 -32 -110q-14 -82 -74 -111q-31 -6 -43 -10 q-31 -10 -35 -23q92 -33 94 -35q55 -27 74 -69q4 -33 16 -92q16 -31 17 -41q0 -6 -7.5 -17.5t-9.5 -15.5q2 -43 -4 -86q-16 -100 -61 -139q-86 -76 -240 -76q-51 0 -145 24.5t-140 24.5q-28 0 -61 -12z" />
<glyph unicode="4" horiz-adv-x="733" d="M152 547q6 12 37.5 74.5t56.5 123.5q41 104 41 127q0 33 -19 56q121 86 121 219q0 12 -12 45t-23 39q0 18 13 26q76 20 94 21q8 0 27.5 -6t29.5 -6q8 0 63.5 36.5t61.5 36.5h76v-34q0 -8 -14 -52q-18 -49 -21 -57q-20 -78 -20 -115v-426q4 -4 16 -4q8 0 92 47 q14 -29 14 -45q0 -6 -15 -33.5t-15 -35.5q0 -4 14 -22.5t16 -24.5h-61q-37 -2 -61 -23q-10 -139 55 -287v-20q-27 -12 -57 -12q-33 0 -67 20.5t-32 20.5l-26 -21q-29 -20 -68 -20q-29 0 -61 20q23 37 43 131q18 88 18 139q0 41 -67.5 41t-241.5 2q-8 9 -8 19zM262 608h23 q57 25 178 25v307q0 8 6 17.5t6 15.5q0 20 -22 31q-39 -98 -125 -293q-29 -40 -66 -103z" />
<glyph unicode="5" horiz-adv-x="892" d="M256 514q6 2 14 2q29 0 74 -31q86 61 98 62h15l12 -8q-12 -47 -12 -74q0 -119 137 -119q143 0 143 121q0 10 -12 35.5t-12 36.5q0 6 12 33.5t12 35.5q0 121 -162 121q-53 0 -138 -20.5t-120 -20.5q-23 0 -55 19v20q0 6 16.5 43t18.5 49q20 123 20 191q0 168 -55 284 q27 27 62 27q18 0 96 -49q10 4 41 28q12 10 59 21.5t66 11.5q39 0 127 -27.5t129 -27.5q10 0 39.5 9t42.5 9q27 0 26 -45q0 -29 -67 -80q43 -106 43 -100q0 -14 -13 -43h-26q-6 0 -39 16.5t-41 18.5q-78 20 -145 20q25 0 -87 -10q-23 -2 -61.5 -4t-48.5 -20 q-45 -84 -45 -168v-25q33 -2 94 9.5t90 11.5q82 0 160 -31q88 -33 129 -92q35 -49 41 -154q0 -6 11 -23.5t11 -25.5t-11 -24.5t-11 -24.5q0 -37 -4 -99q-12 -72 -69.5 -127t-131.5 -75q-43 -12 -131 -13q-252 0 -315 166q0 4 -11 117q-2 14 -16 43z" />
<glyph unicode="6" horiz-adv-x="858" d="M195 764q0 6 12 26.5t12 28.5v199q0 35 27 104q25 63 49 99q35 49 121 84q78 29 147 28q82 0 172 -37q125 -51 139 -141q6 -43 21 -147q0 -4 -8 -17q-68 37 -76 37t-48 -29.5t-48 -29.5h-31q16 53 16 78q0 123 -143 122q-57 0 -97 -34.5t-40 -90.5v-176q10 -10 12 -10 q18 0 65.5 9.5t65.5 9.5q315 0 334 -254q2 -8 12.5 -37t10.5 -35q0 -8 -8.5 -20.5t-8.5 -16.5q-6 -66 -12 -133q-14 -59 -76 -111q-96 -82 -254 -82q-139 0 -254 74q-23 14 -55.5 76.5t-32.5 91.5v279q0 6 -12 26.5t-12 28.5zM420 465q0 -119 141 -119q139 0 139 119 q0 14 -24 74q0 10 12 36.5t12 34.5q0 119 -137 119q-143 0 -143 -119q0 -8 4 -25.5t4 -23.5l16 -22q0 -10 -12 -24.5t-12 -49.5z" />
<glyph unicode="7" horiz-adv-x="864" d="M274 217q0 8 28 54t32 55q139 334 139 436q0 14 -2 26q59 47 75.5 81t49.5 135q27 84 27 92q0 68 -117 67q-137 0 -184 -61h-23q0 6 -3 21.5t-3 23.5q0 10 12 44t12 44q-4 8 -30 47q51 -2 144 21.5t136 23.5q31 0 195 -55q4 0 42 18.5t62 18.5q23 0 60 -15 q-86 -143 -181 -422q-12 -35 9 -98q-29 -18 -76 -74q-6 -10 -84 -219q-41 -111 -41 -176q0 -47 20 -78v-26q-14 -6 -47 -6q-39 0 -69 20l-31 21q-8 -6 -68 -39q-4 -2 -28 -2q-8 0 -23.5 3t-23.5 3q-9 8 -9 16z" />
<glyph unicode="8" horiz-adv-x="905" d="M219 522q0 2 23 47q6 45 12 66q10 35 31.5 58.5t60.5 39t74 27.5q-2 18 -72 33q-47 31 -59 61q-39 94 -39 156q0 6 11 29.5t11 33.5q-12 133 109 205q94 55 219 55q74 0 158 -33q96 -35 129 -90q20 -35 41 -159q0 -4 8 -18.5t8 -22.5q0 -6 -8 -16.5t-8 -16.5 q-4 -41 -23 -123q-14 -39 -59 -61q-27 -6 -78 -25q10 -14 55 -31q55 -23 64 -28q51 -33 65 -146q0 -6 8.5 -17t8.5 -20q0 -8 -8.5 -20t-8.5 -17q-2 -61 -6 -83q-6 -49 -22 -80q-76 -137 -326 -138q-113 0 -199 31q-119 41 -141 129q-8 35 -16 129q0 4 -11.5 20.5t-11.5 24.5 zM457 465q0 -119 137 -119q143 0 143 119q0 31 -30 76q0 8 15 40.5t15 39.5q0 109 -143 108q-137 0 -137 -108q0 -39 12 -55.5t12 -24.5l-12 -26q-12 -25 -12 -50zM457 907q0 -111 141 -110q139 0 139 100v172q0 51 -49 78q-39 23 -94 22q-135 0 -135 -116q0 -29 8 -64 l-6 -10l6 -4q-10 -39 -10 -68z" />
<glyph unicode="9" horiz-adv-x="858" d="M188 967q0 8 11.5 31.5t11.5 33.5q-8 137 100 223q98 78 240 78q33 0 104 -14q92 -18 154 -74q80 -72 80 -145v-271q0 -10 15.5 -35.5t15.5 -29.5q0 -6 -15.5 -29.5t-15.5 -32.5v-219q0 -20 -29 -104q-66 -190 -321 -191q-303 0 -308 205q0 33 -2 74q-4 27 -22 47 q29 0 61 -14l33 -15q6 0 36 26t41 31t40 5q10 -10 6 -23q-16 -37 -16 -69q0 -109 137 -109q121 0 143 119q0 39 3 116.5t3 65.5q0 23 -18 23q-6 0 -19.5 -8.5t-19.5 -8.5q-55 -14 -111 -14q-129 0 -217 66q-98 74 -98 198q0 10 -11.5 35t-11.5 29zM408 903q0 -49 36.5 -84 t85.5 -35h31q127 0 127 117q0 31 -12 68l10 8l-8 8q12 76 8 96q-14 88 -137 88q-57 0 -99 -31.5t-42 -86.5q0 -10 12 -39t12 -39q0 -2 -12 -32t-12 -38z" />
<glyph unicode=":" horiz-adv-x="432" d="M207 401q0 4 11 21.5t11 30.5q8 162 107 161q104 0 104 -155q0 -8 11.5 -29.5t11.5 -28.5q0 -6 -11.5 -24.5t-11.5 -28.5q-4 -160 -102 -160q-100 0 -109 166q0 6 -11 22.5t-11 24.5zM207 989q0 6 13 36t16 38q0 29 10 80q29 63 90 63q35 0 66.5 -30.5t33.5 -64.5t4 -67 q2 -8 12.5 -27.5t10.5 -27.5q0 -6 -11.5 -22.5t-11.5 -26.5q-4 -162 -104 -162q-68 0 -90 58q-4 29 -10 86q-2 8 -15.5 33.5t-13.5 33.5z" />
<glyph unicode=";" horiz-adv-x="483" d="M201 397q16 29 29.5 92.5t27.5 88.5q23 37 74 36q31 0 60.5 -18t37.5 -45q0 -35 10 -96q23 -66 23 -58q0 -8 -15.5 -45t-15.5 -45q0 -35 43 -84t43 -69t-18 -21q0 25 -31 53.5t-57 38.5q-29 -37 -76 -37q-86 0 -100 74q-2 35 -5 71.5t-30 63.5zM201 995q0 6 11 21.5 t11 21.5q12 174 109 174q16 0 49 -18t38 -33.5t13 -85.5q8 -49 31 -80q-18 -27 -31.5 -90t-25.5 -84q-23 -37 -74 -37q-66 0 -90 64q-2 10 -19 110q0 4 -11 16.5t-11 20.5z" />
<glyph unicode="?" horiz-adv-x="716" d="M141 1137v147q55 0 146.5 24.5t138.5 24.5q205 0 279 -98q41 -55 45 -178q0 -6 9 -19.5t9 -23.5q0 -8 -8 -22.5t-8 -20.5q-2 -33 -10.5 -114t-104.5 -134q-80 -45 -168 -47q-2 -51 -6 -105h-115q0 14 3 44t3 44q0 43 -8 68q-14 41 -59 90q129 -14 112 -14q150 0 150 180 q0 84 -48 135t-132 51q-139 0 -195 -86q-8 2 -20.5 23t-12.5 31zM311 328q0 135 97 135q98 0 98 -135q0 -133 -98 -133q-97 0 -97 133z" />
<glyph unicode="A" horiz-adv-x="1120" d="M201 215q190 246 190 459q0 35 -6 65q82 66 137 213q49 135 49 254q0 51 -28 101q6 0 22.5 4t24.5 4q12 0 55 -18.5t55 -18.5q6 0 38 17.5t44 19.5q31 0 70 -8q-25 -59 -25 -101q0 -115 50 -248q55 -152 135 -206q-4 -29 -4 -60q0 -240 192 -471q-27 -20 -63 -20 q-39 0 -101 41q-8 0 -32.5 -20.5t-32.5 -20.5h-74q16 125 16 133q0 111 -51 184q-57 84 -162 84q-152 0 -200 -153q-14 -42 -14 -108q0 -33 3 -71q0 -6 8.5 -17t8.5 -20v-26q-14 -6 -47 -6q-37 0 -67 20.5t-27 20.5q-6 0 -29 -19q-29 -20 -33 -22h-41q-38 0 -61 14zM602 721 q0 -6 14 -21h31q8 0 26.5 8.5t26.5 8.5q10 0 34 -8.5t34 -8.5q23 0 31 7v26q0 45 -35 133q-16 39 -47 119q-8 12 -27 12q-16 -41 -51 -125q-37 -92 -37 -151z" />
<glyph unicode="B" horiz-adv-x="886" d="M203 207q-2 5 -2 12q0 19 12 53q20 59 23 72q14 109 14 170q0 121 -33 211q-6 20 -14 39q0 6 15 43t18 49q14 74 14 158q0 61 -20.5 156.5t-20.5 105.5v33q6 0 21.5 3t23.5 3q39 0 102 -37q6 0 53.5 19.5t57.5 21.5q31 8 111 8q145 0 237 -53q117 -66 115 -199 q0 -10 11 -34.5t11 -32.5q0 -6 -11 -30t-13 -32q-4 -70 -23 -98q-27 -41 -74 -57q-37 -8 -75 -17q0 -8 4 -12q74 -25 86 -31q55 -29 72 -76q4 -35 16 -98q18 -37 18 -35q0 -6 -8 -17t-10 -18q1 -18 1 -39t-1 -45q-2 -37 -23 -73q-78 -141 -329 -142q-88 0 -146 13 q-6 2 -41 18.5t-41 16.5t-28.5 -16.5t-28.5 -18.5h-37q-37 0 -57 6zM453 528q0 -213 153 -213q59 0 95 35t36 94q0 10 -12 42t-12 42t12 39t12 37q0 125 -131 125q-153 0 -153 -201zM453 983q0 -186 139 -186q133 0 133 114q0 29 -10 64l8 8l-8 6q8 35 8 64q0 117 -131 116 q-139 0 -139 -186z" />
<glyph unicode="C" horiz-adv-x="847" d="M195 770q0 4 15 35t15 39v211q0 92 85 179t179 97q20 2 74 2q86 0 172 -26q45 -14 90 -64.5t49 -95.5q4 -37 11 -146q8 -16 22 -43q0 -8 -14 -8q-8 0 -42 14.5t-40 14.5q-8 0 -45 -26.5t-45 -26.5h-45q31 82 31 121q0 57 -42 93t-102 36q-127 0 -143 -150v-164 q2 -12 16.5 -49t14.5 -43q0 2 -1 2q-4 0 -30 -94v-189q27 -137 141 -137q145 0 146 140q0 27 -31 102q8 8 26 8q57 0 105 -61q8 2 33.5 19.5t33.5 17.5h27v-29q0 -12 -11 -36t-11 -36q0 -160 -86 -225q-74 -57 -236 -57q-270 0 -315 190l-17 68v243q0 6 -15 36t-15 38z" />
<glyph unicode="D" horiz-adv-x="921" d="M225 213v20q0 6 10.5 26t12.5 24l28 127q4 18 5 100q0 102 -33 211q-23 23 -23 43q0 8 16.5 37.5t18.5 36.5q20 55 21 176q0 125 -56 286q41 14 56 15q39 0 106 -37q6 0 48 19.5t54 21.5q35 8 111 8q86 0 172 -27q33 -10 80 -49t59 -67q45 -111 45 -121v-221 q0 -8 15.5 -38t15.5 -38q0 -6 -15.5 -37t-15.5 -39v-250q0 -25 -20 -80q-63 -172 -334 -172q-84 0 -186 31l-33 17q8 0 -61 -35h-39q-38 0 -58 12zM479 477q0 -162 135 -162q102 0 134 97q14 45 14 159q0 121 -8 150q-16 55 -17 43q0 8 10.5 34.5t12.5 37.5q2 18 2 102 q0 106 -14 147q-29 84 -130 84q-106 0 -129 -71q-8 -25 -8 -148q0 -113 2 -133q0 -8 11.5 -27.5t11.5 -25.5q0 -8 -11.5 -26.5t-11.5 -28.5q-2 -20 -2 -146q0 14 -2 -43v-43z" />
<glyph unicode="E" horiz-adv-x="825" d="M225 221q35 100 41 135q20 119 21 160q0 55 -24.5 144.5t-24.5 121.5q0 6 13 38t15 42q20 98 21 160q0 43 -19 135q-18 102 -37 123v27q27 14 52 14q41 0 63 -14q0 -4 15.5 -16.5t21.5 -12.5t42 21.5t46 25.5q43 8 80 8q47 0 130 -24.5t124 -24.5q29 0 59 12 q-2 -8 -15 -24.5t-13 -24.5q0 -10 11 -41.5t11 -42.5q0 -25 -12 -67q-4 0 -15 -6q-82 86 -206 86q-104 0 -131 -54q-12 -25 -13 -133q0 -115 13 -139q25 -47 127 -47q51 0 67 6q10 0 94 37q-2 -14 -17 -42t-15 -32q0 -8 13 -34.5t15 -37.5h-24q-6 2 -27 17q-41 18 -106 18 q-106 0 -132 -67q-8 -23 -8 -127q0 -111 13 -138q25 -51 131 -51q63 0 114 21q31 23 99 71q27 -66 27 -102q0 -11 -3 -18q-14 -47 -14 -54l35 -34q-59 6 -78 6q-39 0 -122 -23.5t-128 -23.5q-61 0 -102 12q-70 35 -66 35q-4 0 -42 -20.5t-62 -20.5q-40 0 -58 20z" />
<glyph unicode="F" horiz-adv-x="806" d="M225 221q55 123 56 289q0 90 -56 254q0 6 19.5 48t21.5 56q14 68 15 152q0 170 -56 280q43 14 58 15q33 0 66.5 -21.5t31.5 -21.5l53 35q41 20 117 20q45 0 128 -24.5t122 -24.5q35 0 63 12q0 -12 -37 -47q0 -6 8.5 -14t8.5 -15q8 -47 8 -61q0 -29 -21 -70 q-80 86 -206 86q-106 0 -136 -53q-14 -27 -14 -139q0 -100 19 -133q27 -47 120 -47q72 0 158 43q8 -2 8 -15q0 -8 -15 -30.5t-15 -30.5t10 -25.5t12 -23.5v-21q-117 35 -154 35q-96 0 -124 -49q-18 -33 -19 -127q0 -82 21 -215q2 -16 21.5 -62.5t19.5 -48.5q0 -14 -12.5 -20 t-47.5 -6q-25 0 -60.5 17.5t-39.5 17.5l-35 -17q-35 -18 -59 -18q-40 0 -58 20z" />
<glyph unicode="G" horiz-adv-x="851" d="M176 770q0 6 15.5 39t15.5 41v217q0 12 29.5 75.5t39.5 80.5q27 39 109 84q49 27 170 26q252 0 301 -184q2 -47 10 -141q4 -16 29 -58h-27q-27 0 -73 35q-82 -59 -99 -59h-30l16 112q0 137 -137 138q-102 0 -131 -84q-12 -37 -13 -148q0 -106 15 -143q16 -25 16 -31 q0 -8 -10 -25.5t-12 -23.5q-8 -29 -9 -133q0 -115 13 -152q29 -84 131 -84q92 0 121 58q16 33 16 112v74q-8 43 -49 43q-14 0 -27 -12q-14 14 -14 24q0 6 12 28.5t12 29.5q0 -4 -24 45q96 12 131 12q27 0 58.5 -15.5t29.5 -15.5q6 0 21.5 14.5t23.5 16.5l57 -8 q-31 -45 -30 -62v-323q2 -4 12 -51q-2 1 -4 0q-13 0 -53 -29q-35 -27 -84 -62q-66 -37 -211 -36q-215 0 -291 116q-8 14 -26.5 70.5t-18.5 71.5v243q0 6 -15.5 37t-15.5 37z" />
<glyph unicode="H" horiz-adv-x="950" d="M225 213v20q0 6 10.5 24.5t12.5 25.5q33 158 33 225q0 90 -15 151q-2 10 -21.5 53.5t-19.5 51.5q0 6 19.5 48t21.5 56q14 70 15 146q0 145 -56 286q43 14 58 15q33 0 67.5 -21.5t32.5 -21.5q8 0 23 14l16 14q25 14 57 15q8 0 25.5 -3t25.5 -3v-35q0 -6 -8 -15.5t-8 -15.5 q-25 -72 -33 -139v-139q2 -66 38 -111t99 -45q143 0 144 211q0 139 -62 280q43 14 58 15q43 0 63 -15l19 -18q10 -10 20 -10q6 0 25.5 16.5t23.5 18.5q23 8 45 8q8 0 25.5 -3t26.5 -3q0 -29 -17 -72q-12 -12 -24 -109q-8 -78 -9 -114q0 -23 10.5 -98.5t16.5 -90.5l29 -61 q0 -4 -22.5 -59.5t-24.5 -75.5q-8 -66 -9 -115q0 -164 62 -293l-21 -20q-6 0 -20 -3t-23 -3q-23 0 -92 47q-61 -41 -100 -41q-33 0 -55 6q0 2 -3.5 6t-3.5 10q0 8 16.5 45t18.5 45q27 100 27 195q0 205 -144 205q-98 0 -124 -78q-12 -35 -13 -139q0 -166 56 -275 q-25 -20 -58 -20q-27 0 -62 17l-36 18l-38 -18q-38 -17 -67 -17q-28 0 -51 12z" />
<glyph unicode="I" horiz-adv-x="512" d="M238 1294q4 4 8 13q8 0 25.5 4t27.5 4q23 0 96 -43q8 0 23 14l16 14q25 14 58 15q8 0 24 -3t25 -3q4 -18 -11 -62q-20 -63 -22 -69q-14 -63 -14 -152q0 -104 14 -170q2 -14 21.5 -50t19.5 -42q0 -8 -11.5 -23.5t-11.5 -19.5q-33 -98 -32 -205q0 -98 14 -166 q2 -14 21.5 -65.5t19.5 -57.5q0 -14 -10 -18q-27 -14 -47 -14q-8 0 -48.5 20.5t-48.5 20.5l-37 -18q-37 -17 -63 -17q-25 0 -51 6q-2 16 14 67.5t21 69.5q14 49 14 164q0 102 -14 164q-4 20 -19.5 58t-15.5 34q0 6 16 44t19 48q14 68 14 164q0 159 -55 274z" />
<glyph unicode="J" horiz-adv-x="864" d="M201 569l7 4q7 4 15 5q18 0 66 -37q82 61 86 61h57q-31 -57 -31 -117q0 -133 142 -133q102 0 129 84q10 33 10 148q0 123 -16 157q-14 25 -15 31q0 6 14.5 30.5t14.5 35.5q2 35 2 147q0 135 -4 162q-14 90 -74 145v15q41 14 64 14q27 0 55 -8q8 -2 29.5 -18.5t29.5 -16.5 q4 0 32 19.5t35 21.5t25 2q8 0 26 -3t26 -3q2 -31 -13 -76q-20 -63 -22 -74q-14 -86 -14 -149q0 -68 20 -160q2 -8 15.5 -39t13.5 -39l-25 -47q-25 -47 -24 -88v-197q0 -8 -29 -98q-49 -154 -305 -153q-156 0 -226 49q-51 37 -73 96q-12 37 -20.5 114.5t-22.5 114.5z" />
<glyph unicode="K" horiz-adv-x="950" d="M225 221q61 135 62 293q0 66 -28 159t-28 91q0 6 13.5 32.5t15.5 34.5q27 100 27 183q0 164 -56 266v23q41 12 56 12q39 0 100 -43q12 0 41 28q27 14 53 15q8 0 23.5 -3t23.5 -3q2 -8 2 -17q0 -18 -13 -51t-15 -45q-20 -121 -21 -180q0 -199 47 -219q10 0 19 16 q23 41 104 205q80 158 80 199q0 31 -24 77q20 20 41 21q37 0 70.5 -21.5t35.5 -21.5q6 0 30.5 21.5t33.5 21.5h38q-25 -41 -59 -113q-4 -12 -29 -170q-94 -61 -147 -164q-27 -49 -27 -61q0 -33 137 -133q37 -150 66 -234q49 -141 121 -231q-14 -8 -45 -8t-69 17.5t-42 17.5 q-6 0 -32.5 -17.5t-34.5 -17.5h-50q-20 0 -12 39q10 49 10 63q0 80 -98 262l-102 191q-8 0 -19 -13q-8 -20 -22 -59q-20 -86 -21 -176q0 -193 62 -287q-12 -20 -62 -20q-31 0 -61.5 17.5t-36.5 17.5t-46 -20.5t-48 -20.5q-23 -1 -64 26z" />
<glyph unicode="L" horiz-adv-x="790" d="M219 213q55 125 55 297q0 55 -24 162q-22 94 -24 94l-1 -2q0 6 13.5 34.5t15.5 39.5q20 125 20 178q0 160 -55 284q43 14 57 15q33 0 67 -21.5t32 -21.5l35 18q35 18 59 19q8 0 26.5 -3t26.5 -3q2 -4 2 -13q0 -12 -12 -45q-14 -39 -16 -49q-20 -94 -21 -188 q0 -115 27 -195q2 -6 15 -26.5t13 -28.5t-16 -37t-18 -37q-20 -51 -21 -180q0 -98 19 -123q25 -35 118 -35q74 0 109 19q29 29 82 73q27 -45 26 -100q0 -16 -2 -33l-16 -33q0 -12 35 -30v-23q-37 16 -72 17q-29 0 -105.5 -24t-123.5 -24q-37 0 -107.5 24t-62.5 24 q-6 0 -23 -13q-23 -14 -24 -16q-23 -6 -52 -6q-14 0 -57 12z" />
<glyph unicode="M" horiz-adv-x="1245" d="M213 213v20q0 4 16.5 42t18.5 44q20 61 20 195v90q-4 41 -32 121q-2 4 -12.5 17.5t-10.5 21.5t14 35q18 35 21 39q20 51 20 178q0 162 -55 284q55 14 76 15q109 0 147 -49q18 14 53 34q57 20 105 21q12 0 37.5 -6t38.5 -6q0 14 -15.5 -38t-15.5 -89q0 -154 127 -496 q20 8 31 53q4 23 16 68q27 86 68 237q14 61 14 150q0 12 -8 63q-6 16 -21 50q14 0 40 7t38 7q106 0 156 -55q35 49 143 49q12 0 36 -3t36 -3q2 -25 -12 -64q-18 -49 -21 -61q-14 -78 -14 -164q0 -98 20 -164q4 -10 25.5 -47t21.5 -43q0 4 -30 -57q-31 -90 -35 -117 q-2 -8 -2 -88q0 -172 55 -271v-20q-25 -12 -49 -12q-31 0 -82 41q-51 -41 -86 -41q-39 0 -57 20q27 45 55 213l-6 674q-4 0 -19 -16l-78 -177q-45 -100 -67 -182q2 -43 2 -129q0 -8 -18.5 -30.5t-26.5 -36.5q-31 -53 -31 -160q0 -33 6 -94q2 -6 12.5 -26.5t10.5 -29.5v-26 q-8 -6 -27 -6q-37 0 -51 8q-4 2 -17.5 17.5t-23.5 15.5q-6 0 -39 -20.5t-41 -20.5h-35q-14 0 -14 12q0 8 6 22q29 70 29 138q0 96 -27 157q-12 29 -53 92q8 27 8 60q0 72 -53 192q-78 176 -84 199q-8 12 -21 35q-10 0 -14 -4v-682q0 -18 19.5 -91t29.5 -92v-20 q-23 -12 -51 -12q-31 0 -55.5 17.5t-30.5 17.5l-31 -17q-31 -18 -51 -18t-49 12z" />
<glyph unicode="N" horiz-adv-x="960" d="M219 1309q6 0 21.5 3t23.5 3q35 0 103 -43q6 0 32.5 18.5t33.5 21.5t30 3q27 0 43 -8q-16 -33 -17 -70q0 -94 95 -217l164 -205q12 0 18 10q39 125 39 215q0 45 -20.5 130t-41.5 124q23 20 45 21q31 0 105 -43q35 43 98 43q25 0 39 -8v-21q0 -4 -7 -15t-9 -16 q-39 -125 -39 -245q0 -94 14 -154q2 -14 21.5 -50t19.5 -42q0 -8 -11 -23.5t-11 -19.5q-33 -111 -33 -211q0 -172 55 -277v-26q-14 -6 -45 -6q-33 0 -96 41q-6 0 -62 -41l-65 6q43 98 43 164q0 78 -53 164q-33 53 -116 148t-116 151q-10 0 -18 -11q-51 -106 -51 -309 q0 -207 61 -293q-6 -20 -51 -20q-20 0 -58 18l-36 17q-6 0 -39 -17.5t-60 -17.5q-48 0 -48 21q0 3 1 7q20 35 40 113t20 123q0 -8 -9 145q-2 35 -18 86q-2 6 -15.5 35t-13.5 35q0 8 16.5 44t18.5 46q20 84 21 207q-1 43 -62 246z" />
<glyph unicode="O" horiz-adv-x="835" d="M158 770q0 6 15 36t15 38v198q0 39 32 110t63 99q90 88 241 88q74 0 146 -26q172 -66 194 -283q4 -36 4 -96q0 -40 -2 -92q0 -10 14.5 -38t14.5 -34q0 -8 -10.5 -23.5t-12.5 -19.5v-221q0 -16 -12 -41q-4 -43 -10 -80q-37 -190 -320 -190q-297 0 -331 227q-10 66 -11 49 v231q0 6 -15 33t-15 35zM383 592q0 -109 16 -154q31 -86 127 -86q100 0 129 80q14 39 15 158q0 92 -2 104.5t-15.5 40t-13.5 35.5q0 6 14.5 36t14.5 42q2 37 2 102q0 113 -15 150q-31 76 -129 76q-96 0 -127 -84q-16 -45 -16 -146q0 -86 8 -123q2 -8 15.5 -25.5t13.5 -25.5 q0 -6 -10.5 -20.5t-12.5 -18.5q-14 -47 -14 -141z" />
<glyph unicode="P" horiz-adv-x="915" d="M219 213v20q0 6 13.5 33t15.5 35q33 129 33 227q0 57 -28 143.5t-28 94.5t13.5 35.5t15.5 36.5q27 94 27 159q0 180 -62 297q31 27 62 27q10 0 52 -18.5t48 -18.5q-15 0 -15 2q0 5 77 23q112 25 145 24q295 0 354 -166q2 -6 10 -80q6 -55 29 -73q-23 -27 -30 -119 t-52 -137q-57 -57 -176 -78q-10 0 -166 -12q-25 -2 -41 -19q-41 -41 -41 -55v-154q0 -35 26.5 -114.5t47.5 -104.5q-29 -20 -68 -20q-29 0 -65.5 17.5t-34.5 17.5l-37 -18q-37 -17 -63 -17q-21 0 -62 12zM475 985q0 -188 137 -188t138 100v172q0 47 -42 73.5t-92 26.5 q-141 0 -141 -184z" />
<glyph unicode="Q" horiz-adv-x="921" d="M158 770q0 6 15 36t15 38v198q0 27 29 107q35 94 125 147q82 49 188 50q117 0 210.5 -61.5t113.5 -172.5q18 -53 18 -61v-215q0 -6 11.5 -30t11.5 -30t-11.5 -26.5t-11.5 -28.5v-244q0 -14 -9 -50t-9 -50q0 -98 133 -141q-14 -35 -100 -35q-41 0 -83 20.5t-46 20.5 q-6 0 -41 -16.5t-43 -18.5q-45 -12 -144 -12q-297 0 -331 227q-10 66 -11 49v231q0 6 -15 33t-15 35zM389 496q0 -57 40 -97.5t97 -40.5q143 0 144 156q0 35 -25 72q12 12 25 10v68q0 31 -15 75q0 4 -8 13.5t-8 17.5q0 6 14.5 36t14.5 42q2 37 2 102q0 113 -15 150 q-31 76 -129 76q-113 0 -137 -119v-197q2 -6 16.5 -40t14.5 -42q0 -6 -15.5 -37.5t-15.5 -38.5v-206z" />
<glyph unicode="R" horiz-adv-x="1024" d="M219 213v20q0 6 13.5 33t15.5 35q33 137 33 215q0 68 -15 131q-4 14 -25.5 61.5t-21.5 55.5q0 6 16.5 38t18.5 36q27 92 27 176q0 172 -62 280q20 20 57 21q27 0 65 -15.5t40 -15.5q-16 0 -16 2q0 5 79 23q115 25 150 24q84 0 176 -28q119 -37 154 -103q12 -25 24 -61 l10 -90q0 -6 8.5 -19.5t8.5 -21.5q0 -6 -8.5 -19.5t-8.5 -19.5q-10 -80 -20 -103q-18 -45 -74 -69q-45 -14 -90 -31q14 -14 72 -29q66 -16 78 -84l12 -65q16 -47 55 -68q12 -207 107 -319q-76 -14 -119 -15q-135 0 -205 68l17 31q14 31 14 73q0 53 -21 91q-18 25 -39 69 q0 2 7 60q2 20 2 36q0 27 -6 43q-27 70 -136 70q-96 0 -123 -49q-14 -27 -14 -115q0 -80 14 -172q18 -125 54 -172q-29 -20 -58 -20q-39 0 -104 35l-37 -18q-37 -17 -63 -17q-21 0 -62 12zM475 983q0 -186 137 -186t138 112q0 31 -11 66l11 8q0 14 -17 12l15 23q2 16 2 31 q0 121 -134 120q-141 0 -141 -186z" />
<glyph unicode="S" horiz-adv-x="886" d="M213 283q0 16 25 39q23 16 43 32q-12 25 -31 74l8 45q135 -158 317 -158q180 0 181 158q0 76 -55.5 127t-133.5 51q-27 0 -41 -6q-8 39 -67 84q-45 31 -92 64q-55 55 -74 92q-25 47 -25 116q0 135 89 224.5t225 89.5q61 0 149 -35q98 -41 146 -45q-23 -25 -48 -70 q-6 -47 -14 -94q-23 25 -63 66q-61 51 -146 51q-162 0 -162 -150q0 -68 47.5 -111.5t114.5 -43.5q27 0 51 6q12 -43 72 -84q49 -29 98 -60q123 -84 123 -231q0 -160 -100 -242q-92 -78 -254 -77h-72q-29 0 -128 38.5t-128 38.5q-35 0 -47 -6q-8 3 -8 17z" />
<glyph unicode="T" horiz-adv-x="960" d="M158 1272q0 25 28 24q-15 0 -14 -1q0 -3 62 -11q93 -12 135 -12q94 0 151 14q76 19 76 22q0 1 -2 1q16 0 72.5 -16.5t74.5 -18.5q8 -2 78 -2q113 0 191 31q20 -20 20 -37q0 -6 -21.5 -45t-21.5 -45q0 -8 21.5 -48.5t21.5 -46.5q0 4 -6 -45q-2 -8 -16 -8q-6 0 -26.5 13.5 t-29.5 15.5q-74 27 -141 26q-78 0 -117 -22v-20q0 -79 15 -148q2 -14 21.5 -65.5t19.5 -57.5q0 41 -14.5 -6t-26.5 -123q-14 -84 -15 -125q0 -145 56 -295q-29 -20 -58 -20q-37 0 -94 41q27 0 -27.5 -20.5t-76.5 -20.5q-8 0 -23.5 3t-24.5 3q-8 8 -8 16t10.5 30.5t12.5 29.5 q39 154 39 225q0 57 -31 170q-26 97 -30 97q-1 0 -1 -3q0 6 13.5 31.5t15.5 34.5q33 119 33 206q0 6 -3 13.5t-3 9.5q-43 16 -113 16q-27 0 -133 -20q-8 -2 -49 -29h-27q-8 14 -8 47q0 31 6 41q14 18 29 39q8 20 8 17q0 6 -19.5 29.5t-21.5 29.5q-8 23 -8 35z" />
<glyph unicode="U" horiz-adv-x="909" d="M166 1292v23q39 12 57 12q8 0 52 -18.5t55 -18.5q6 0 47 18.5t49 18.5q12 0 55 -14v-21q0 -6 -16 -42t-19 -48q-20 -96 -20 -250q0 -98 8 -133q0 -4 11.5 -21.5t11.5 -25.5q0 -6 -11.5 -23.5t-11.5 -21.5q-8 -37 -8 -139q0 -115 12 -152q29 -84 131 -84q106 0 131 92 q6 25 7 146q0 86 -2 119q0 8 -11.5 30.5t-11.5 30.5t8 20.5t8 16.5q8 31 9 151q0 123 -2 146q-8 96 -54 194q0 12 15 21l47 8q10 0 51 -18.5t49 -18.5q10 0 52 18.5t53 18.5q29 0 57 -20q-47 -104 -60 -191q-8 -55 -8 -166q0 -121 15 -149q10 -20 10 -29q0 -6 -12.5 -27.5 t-12.5 -29.5v-219v2q-2 0 -22 -119q-31 -184 -316 -184q-152 0 -237 55q-20 12 -62 74q-6 6 -25.5 78.5t-19.5 86.5v177q0 35 -2 55q0 4 -11 22.5t-11 26.5q0 6 10 24.5t12 24.5q2 18 8 55v158l-22 139q-14 66 -43 121z" />
<glyph unicode="V" horiz-adv-x="993" d="M104 1300l78 21q27 0 94 -49q72 49 113 49q33 0 43 -14q-31 -78 -31 -142q0 -154 91 -254q-8 -45 -9 -88q0 -156 105 -307q29 29 65 133q25 70 39 127q-6 45 -8 127l6 10q23 35 39 66q45 92 45 197q0 76 -31 124q31 20 56 21q23 0 59 -25l37 -24q8 0 46 24.5t46 24.5 q10 0 30.5 -5t29.5 -5q12 0 18 10v-35q-53 -66 -117 -231q-10 -25 -33 -90q-8 -37 -12 -80q2 -33 2 -103q-86 -78 -129 -186q-14 -37 -55 -193q-5 -18 -5 -58q0 -49 7 -130q-10 -14 -41 -14q-33 0 -62.5 20.5t-27.5 20.5q-8 0 -39 -20.5t-39 -20.5h-49l-10 8q8 82 8 104 q0 168 -111 375q-35 29 -82 98q2 41 2 117q-21 147 -168 397z" />
<glyph unicode="W" horiz-adv-x="1447" d="M129 1300q82 20 86 21q6 0 44 -21.5t46 -21.5q2 0 45 21.5t66 21.5q20 0 43 -21q-31 -63 -31 -129q0 -90 43 -192q18 -25 39 -64q2 -12 -6 -48t-8 -48q0 -154 106 -303q41 33 74 168q16 66 16 120q0 16 -2 32q0 10 -7 35.5t-5 39.5q16 20 41 62q37 92 37 162 q0 76 -47 165q29 20 53 21q8 0 51 -24.5t49 -24.5q2 0 36 24.5t63 24.5q20 0 51 -21q-41 -61 -41 -161t69 -221q6 -10 0 -35q-2 -20 -6 -41q-2 -24 -2 -47q0 -161 88 -279q20 12 35 53q10 29 25 62q43 72 43 172q0 55 -15 106q84 125 84 262v54q-4 14 -30 75q23 20 43 21 q39 0 112 -49q70 49 94 49q20 0 74 -12q6 0 6 -15q0 -6 -47 -83.5t-53 -94.5q-72 -193 -72 -280q0 -29 4 -56q-47 -37 -67 -73q-123 -215 -123 -402q0 -49 10 -90q-12 -14 -39 -14t-59 20l-35 21q-6 0 -41 -20.5t-43 -20.5h-68v20q0 6 14.5 33t14.5 35q0 154 -63 358 q-16 53 -62 187q-4 0 -12 -11q-25 -78 -72 -230.5t-47 -260.5q0 -45 31 -111v-20h-68q-8 0 -40.5 20.5t-41.5 20.5q-6 0 -31.5 -20.5t-35.5 -20.5h-49q-10 6 -11 30q0 12 4.5 39t4.5 39q0 123 -68 283q-51 121 -131 194q6 31 6 66q0 192 -172 448z" />
<glyph unicode="X" horiz-adv-x="983" d="M195 209q37 33 71 98q23 41 29 168q162 143 194 264q0 4 11.5 21.5t11.5 27.5q0 20 -45 95q-35 57 -53 80q-41 27 -95 92q0 41 -10 123q-2 2 -59 135q6 0 20.5 4t22.5 4t49 -18.5t47 -18.5q8 0 49 18.5t49 18.5q6 0 20.5 -3t20.5 -3q4 -6 4 -17q0 -10 -7 -34.5t-7 -36.5 q0 -55 41 -127q25 -43 76 -127q4 -2 14 -10q133 168 133 264q0 43 -20 80q29 14 37 14t46 -18.5t44 -18.5q8 0 46 18.5t46 18.5q16 0 31 -14q-84 -104 -82 -258q-45 -37 -125 -123q-14 -20 -37 -68q-25 -53 -25 -70q0 -20 43 -104t63.5 -102.5t104.5 -102.5q8 -96 17 -127 q20 -78 84 -137q-20 -14 -58 -14q-41 0 -71 18l-33 17q27 0 -27.5 -17.5t-77.5 -17.5q-37 0 -57 6q0 16 6 48t6 48q0 113 -133 318q-18 2 -32 -23q-37 -63 -80 -135q-35 -72 -35 -144q0 -41 24 -98q-23 -20 -55 -20q-35 0 -67.5 17.5t-28.5 17.5q-10 0 -64 -35z" />
<glyph unicode="Y" horiz-adv-x="854" d="M117 1307q29 14 47 14q23 0 98 -49q-25 0 28.5 24.5t69.5 24.5q6 0 17.5 -3t17.5 -3q0 -16 -6 -51t-6 -52q0 -76 106 -319q8 -27 25 -41l86 184q41 94 41 181q0 47 -12 90q27 14 45 14q20 0 54 -24.5t36 -24.5q8 0 49 24.5t49 24.5q6 0 51 -14q-94 -88 -102 -195l-4 -119 q-111 -90 -156 -200q-41 -98 -41 -252q0 -178 60 -314q0 -8 -15 -20q-8 0 -24.5 -3t-24.5 -3q-23 0 -57 20l-37 21q-4 0 -31.5 -18.5t-38.5 -22.5h-28q-29 0 -60 20q59 129 60 318q0 301 -193 448q2 24 2 46q0 168 -106 274z" />
<glyph unicode="Z" horiz-adv-x="813" d="M213 223q0 -21 6 -21q21 0 117 294l49 131q31 86 31 131q0 20 -6 37q59 47 86 94q14 29 43 121q23 74 22 88q0 53 -47 65q-16 6 -70 6q-145 0 -178 -61h-20q-8 14 -8 51q0 39 14 62q10 16 10 24t-14.5 20.5t-16.5 18.5q12 0 34 -3t34 -3q25 0 97.5 27.5t115.5 27.5 q39 0 193 -55q4 0 47 21.5t59 21.5q8 0 25.5 -6t27.5 -6v-23q0 -6 -10 -20q-16 -18 -18 -23q-18 -37 -88 -207q-63 -158 -64 -192q0 -25 8 -43q4 -10 0 -21q-29 -20 -76 -73q-29 -57 -65 -168q-33 -98 -33 -113q0 -80 121 -80q147 0 203 70q10 2 16 2q6 -23 6 -51 q0 -18 -2 -37q0 -6 -7 -23.5t-7 -27.5q0 -8 22 -43h-61q-31 0 -118 -24t-136 -24q-59 0 -109 13q-6 2 -39.5 21.5t-39.5 19.5q-14 0 -35 -17q-27 -20 -35 -24h-29q-8 0 -23.5 3t-23.5 3q-8 8 -8 16z" />
<glyph unicode="[" horiz-adv-x="835" d="M8 1274l2 47h23q53 0 108 -39q45 -31 99 -65q20 12 84 71q43 39 106 39q78 0 139 -18l23 14q8 -2 35 -8q23 -4 35 4h75q2 -47 -63 -59q-27 -6 -101 -9q-23 0 -67.5 7.5t-67.5 7.5q-92 0 -78 -432q0 -43 8.5 -131.5t8.5 -131.5q0 -45 -8.5 -135t-8.5 -135q0 -203 89 -203 q139 0 172 -4q119 -18 116 -94h-71q-23 14 -58 14q-33 0 -98.5 -7t-97.5 -7q-47 0 -84 51q-45 66 -70 78q-8 -4 -98 -68q-57 -39 -107 -36l-24 2v45q117 33 114 315q0 6 2 31v49v111q-14 663 -137 696z" />
<glyph unicode="]" horiz-adv-x="835" d="M10 0q-2 76 117 94q33 4 172 4q88 0 88 203q0 45 -8 135t-8 135q0 43 8 131.5t8 131.5q14 432 -78 432q-23 0 -67.5 -7.5t-67.5 -7.5q-74 2 -100 9q-66 12 -64 59h76q12 -8 35 -4q27 6 35 8l22 -14q61 18 139 18q63 0 107 -39q63 -59 84 -71q53 35 98 65q55 39 109 39h22 l2 -47q-123 -33 -137 -696v-111v-49q2 -25 2 -31q-2 -283 115 -315v-45l-25 -2q-49 -2 -106 36q-90 63 -99 68q-25 -12 -69 -78q-37 -51 -84 -51q-33 0 -98.5 7t-98.5 7q-35 0 -57 -14h-72z" />
<glyph unicode="a" d="M207 389q0 123 117 182l73 37q8 4 36 33t36 29q6 0 18.5 -3t18.5 -3q117 0 117 94q0 43 -33 68.5t-76 25.5q-123 0 -231 -117q-4 33 -17 94q-20 23 -47 68q25 -2 64 4q100 49 131 57q47 14 123 15q201 0 266 -131q20 -39 20 -90v-111q2 -6 16.5 -29.5t14.5 -29.5 q0 29 -15.5 -30.5t-15.5 -84.5q0 -59 19 -141q35 -88 35 -86v-27q-33 -12 -54 -12q-33 0 -91 26.5t-50 26.5q4 0 -49 -35q-66 -31 -160 -31q-113 0 -182 43q-84 52 -84 158zM408 403q0 -41 29.5 -67.5t70.5 -26.5q31 0 67 17q45 20 46 47v168h-27q-18 0 -89 -36t-84 -52.5 t-13 -49.5z" />
<glyph unicode="b" horiz-adv-x="886" d="M211 221q57 123 57 238q0 33 -15 74.5t-15 37.5q0 4 15 31t15 35v479q0 47 -55 170v29q41 12 61 12q8 0 49.5 -21.5t49.5 -21.5q6 0 44 21.5t46 21.5t26.5 -3t26.5 -3q0 -2 4 -7t4 -14q0 -14 -27.5 -92t-27.5 -90v-170q170 18 158 19q203 0 272 -123q20 -39 23 -96v-107 q2 -8 15 -35.5t13 -34.5q0 -6 -13 -32.5t-15 -36.5q0 -39 -2 -115q-2 -61 -39 -104q-86 -100 -258 -101q-63 0 -115 13q-14 4 -53 28.5t-43 24.5t-40 -21.5t-44 -25.5q-27 -6 -54 -6q-20 0 -59 12q-2 4 -4 14zM469 459q0 -156 129 -156q127 0 127 182q0 10 -15.5 45 t-15.5 45q0 8 11.5 25.5t11.5 22.5q8 90 8 100q0 49 -39 86t-88 37q-129 0 -129 -156q0 -63 9 -81.5t16 -33.5q0 2 -12.5 -40.5t-12.5 -75.5z" />
<glyph unicode="c" horiz-adv-x="761" d="M170 582q0 6 11.5 24.5t11.5 28.5q0 47 10 141q23 98 125 152q86 45 196 45q51 0 143.5 -36t141.5 -36q8 -2 8 -16q0 -6 -18 -25l-25 -24q-8 -14 -10 -50q-6 -41 -10 -57q-68 123 -230 123q-129 0 -129 -156q0 -55 15 -86q10 -23 10 -28q0 -8 -10.5 -32t-12.5 -33t-2 -52 q0 -156 135 -156q141 0 215 117q16 -12 19.5 -52t9.5 -46q14 -14 41 -45v-21q-33 4 -49 -4q-135 -70 -248 -70q-190 0 -278 117q-37 47 -47 221q0 8 -11.5 28t-11.5 28z" />
<glyph unicode="d" horiz-adv-x="858" d="M182 571q0 6 10.5 25.5t12.5 28.5q0 57 10 176q12 61 74 106q55 41 123 51q49 8 90 9q57 0 116 -15q35 -8 27 -8q8 0 19 10v144q0 25 -24 105.5t-36 88.5q0 6 2 15q25 20 62 20q16 -6 94 -43q6 6 43 29q25 14 55 14q29 0 60 -20q-47 -94 -58 -224q-2 -25 -2 -225 q0 -186 6 -233q0 -6 11.5 -23.5t11.5 -26.5l-15 -45q-14 -45 -14 -57q0 -143 60 -246v-20q-35 -12 -64 -12q-31 0 -92 24q-4 2 -18.5 15.5t-22.5 13.5q-4 0 -35 -21.5t-45 -25.5q-74 -18 -131 -19q-129 0 -211 60q-94 68 -94 190q0 27 4 55q2 14 -13.5 47t-15.5 37zM408 457 q0 -154 124 -154q131 0 132 154q0 82 -23 100q0 2 -4 4t-4 10l22 45q8 16 9 74q0 156 -127 156q-129 0 -129 -156q0 -49 8 -74l22 -45q0 31 -15 -25t-15 -89z" />
<glyph unicode="e" horiz-adv-x="806" d="M182 578q0 6 11.5 27.5t11.5 29.5q2 70 6 100q8 59 29 96q78 141 299 142q133 0 223 -66q104 -74 104 -200q0 -8 -24 -84q6 -16 10 -48v-40q-51 39 -104 43q8 0 -121 0q-18 0 -54 2t-55 2q-111 0 -110 -117q0 -156 141 -156q166 0 221 111q8 -33 23 -94q20 -10 41 -43 v-21q-18 2 -43 -4q-147 -70 -254 -70q-162 0 -250 86q-81 79 -81 220q0 13 1 26q0 6 -12.5 28t-12.5 30zM408 727q0 -94 131 -94q125 0 125 96q0 55 -35 89t-90 34q-57 0 -94 -35t-37 -90z" />
<glyph unicode="f" horiz-adv-x="864" d="M135 793q27 27 27 51q0 18 -21 20v25q37 -18 84 -19q31 0 64 15q41 18 41 45v168q0 53 32 104q80 125 271 125q74 0 137 -29q86 -39 104 -43q8 -2 46 -2q6 0 6 -14q0 -4 -21.5 -27.5t-25.5 -33.5q-4 -29 -17 -88q-74 76 -88 86q-43 31 -112 30q-94 0 -121 -71 q-10 -29 -11 -119q0 -82 7 -98q18 -47 96 -48q35 0 82 17q61 20 78 24v-20q0 -6 -18.5 -23.5t-18.5 -25.5l30 -47v-29h-20q-6 0 -36 16.5t-39 18.5t-54 2q-74 0 -90.5 -23.5t-16.5 -89.5q0 -51 9 -84l8 -10q8 -12 8 -21q0 -8 -11.5 -30.5t-12.5 -31.5t-1 -50q0 -117 56 -242 q0 -8 -15 -20q-8 0 -22 -3t-23 -3q-39 0 -100 41q-6 0 -28.5 -16.5t-26.5 -18.5q-23 -6 -39 -6q-27 0 -58 18v20l17 25q39 119 39 205q0 45 -15.5 81t-15.5 31q0 -2 23 43q8 25 8 72q0 66 -20.5 89.5t-84.5 23.5q-39 0 -90 -10z" />
<glyph unicode="g" horiz-adv-x="747" d="M86 582q0 6 11.5 28.5t11.5 30.5q-1 13 -1 26q0 306 328 306q100 0 226 -47q2 0 37.5 18.5t60.5 18.5q16 0 57 -15q-4 -8 -16 -57q-37 -137 -37 -213q0 -31 14.5 -64.5t14.5 -31.5q0 -8 -14.5 -37t-14.5 -37v-483q0 -43 -45 -100.5t-86 -76.5q-78 -33 -168 -32 q-111 0 -238 65q-29 14 -80 15v28q37 25 43 64q10 70 15 78q90 -127 229 -127q47 0 68 12q59 37 59 69v181q-10 12 -12 12q-6 0 -25.5 -8t-25.5 -10q-29 -6 -92 -7q-186 0 -269 119q-25 37 -26 103l-2 112q0 4 -11.5 28t-11.5 32zM311 465q0 -156 129 -156q121 0 121 154 q0 72 -14 94q-10 16 -10 25q0 10 12 23t12 18v147q0 12 -29.5 40t-44.5 34q-29 8 -47 8q-129 0 -129 -156q0 -63 19 -90q12 -20 12 -28q-31 -54 -31 -113z" />
<glyph unicode="h" horiz-adv-x="931" d="M231 221q61 119 62 250q0 49 -15.5 74.5t-15.5 29.5t13.5 36t15.5 42q2 37 2 217q0 170 -4 217q-10 125 -58 213q29 27 64 27q29 0 64.5 -21.5t33.5 -21.5q12 0 41 29q25 14 53 14q8 0 26.5 -3t27.5 -3q0 -2 4 -6t4 -12t-11.5 -24.5t-11.5 -23.5q-39 -141 -39 -174v-145 q10 -10 19 -10q6 0 20.5 10t18.5 10q68 20 104 21q231 0 287 -185q6 -68 10 -147q0 -8 14.5 -30.5t14.5 -29.5q0 -4 -17 -26q-14 -53 -14 -86q0 -129 55 -230v-20q-29 -18 -61 -18q-6 0 -48 20.5t-48 20.5q-8 0 -45 -27q-18 -14 -49 -14q-8 0 -24.5 6t-23.5 6v26 q0 6 8.5 16.5t8.5 14.5l16 86q10 57 10 96q0 59 -8 91q0 4 -8 17t-8 21q0 -6 16 43q8 25 8 72q0 156 -127 156q-129 0 -129 -137q0 -53 2 -62q6 -23 35 -74q-37 -39 -37 -102q0 -35 15 -123q16 -98 35 -127q-18 -27 -52 -26q-8 0 -49 20.5t-49 20.5t-47 -20.5t-47 -20.5 q-35 -1 -62 26z" />
<glyph unicode="i" horiz-adv-x="534" d="M260 221q57 106 57 246q0 49 -15 77.5t-15 30.5q0 -2 16 31q14 49 14 76q0 143 -55 233v27q41 14 57 14q33 0 66 -21l33 -22q8 0 23.5 13.5t17.5 13.5q25 16 53 16q8 0 26.5 -4t26.5 -4q0 -2 4 -5t4 -11q0 -6 -24.5 -75t-28.5 -93q-8 -61 -8 -86l8 -53q0 -6 11.5 -22.5 t11.5 -24.5q0 -6 -11.5 -24.5t-11.5 -27.5q-8 -47 -8 -59q0 -137 49 -234v-20q-37 -18 -49 -18q-8 0 -49 20.5t-49 20.5q-6 0 -29 -16.5t-27 -18.5q-23 -6 -39 -6t-57 12q0 6 -2 14zM305 1190q0 10 10 31q0 29 17 82q12 16 53 34q6 2 35 2q111 0 110 -145q0 -16 -13 -67.5 t-21 -59.5q-41 -20 -76 -20q-31 0 -62.5 17t-38.5 46q-2 18 -4 55q-10 17 -10 25z" />
<glyph unicode="j" horiz-adv-x="555" d="M0 -152q18 18 47 58q2 31 23 92q49 -96 159 -96q10 0 54 6q18 4 47.5 43t29.5 57v498q0 8 -15 34.5t-15 34.5q0 6 16 37q14 45 14 70q0 61 -38 203q-16 23 -17 26v31q41 14 55 14q37 0 70 -21.5t31 -21.5q2 0 21.5 15.5t25.5 17.5q23 10 47 10q25 0 55 -20v1 q-2 0 -22 -71q-33 -115 -33 -184q0 -14 8 -57q0 -6 11.5 -23.5t11.5 -26.5q0 -8 -15.5 -39.5t-15.5 -39.5v-506q0 -57 -59.5 -129t-114.5 -74q-12 0 -40 -4t-42 -4q-55 0 -136 30.5t-114 30.5q-23 0 -35 -6zM342 1194l16 33q-2 23 11 67q25 45 94 45q72 0 96 -57 q0 -20 7 -59t7 -29q0 -14 -10 -29q4 -119 -100 -118q-88 0 -103 69q0 14 -2 43q-16 33 -16 35z" />
<glyph unicode="k" horiz-adv-x="921" d="M219 213v20q0 4 13.5 29t15.5 33q12 49 24 100q2 4 2 64q0 76 -30 116q23 31 30 66l7 397q0 47 -19.5 136.5t-42.5 117.5v23q41 12 62 12q45 0 75 -27l21 -16q16 0 22 14q43 29 74 29q35 0 64 -20q-10 -18 -36 -97.5t-26 -97.5v-176q4 -4 17 -4q6 0 31.5 12t33.5 14 q23 8 76 9q244 0 244 -226q0 -76 -60 -106v-17q61 -33 78 -100q6 -35 23.5 -103.5t68.5 -193.5q-29 -27 -61 -26q-23 0 -97 41l-36 -21q-37 -20 -62 -20q-6 0 -19.5 3t-18.5 5t-5 8q0 14 7 39.5t16 50.5q20 104 20 158q0 113 -127 112q-129 0 -129 -127q0 -35 14 -110 q14 -86 29 -98v-29q-25 -12 -49 -12q-8 0 -47 20.5t-47 20.5t-49 -20.5t-50 -20.5q-26 0 -57 18zM475 733q0 -119 131 -119q51 0 88 32t37 83q0 117 -127 117q-129 0 -129 -113z" />
<glyph unicode="l" horiz-adv-x="512" d="M231 213v20q0 4 13.5 26t15.5 30q27 100 27 178q0 31 -12.5 65.5t-12.5 42.5q0 6 12.5 30t12.5 32v485q0 18 -22.5 89t-33.5 81v23q41 12 62 12q25 0 96 -43q8 0 23 14l16 15q25 14 57 14q16 0 56 -12q2 -4 2 -10q0 -4 -28 -77t-28 -196v-348q0 -53 15.5 -77.5 t15.5 -31.5q0 -8 -13 -27.5t-15.5 -26.5t-2.5 -54q0 -152 62 -246q-4 -4 -32 -15t-36 -11t-46 20.5t-46 20.5q-2 0 -37 -20.5t-63 -20.5q-27 0 -58 18z" />
<glyph unicode="m" horiz-adv-x="1331" d="M207 223q0 2 22 47q33 121 33 195q0 33 -14 84l-17 26q2 2 17 25q14 37 14 82q0 143 -55 233v27q41 14 57 14q25 0 60.5 -18t37.5 -18q8 0 30 10t24 10q82 27 170 27q72 0 155 -21q10 -2 42 -20.5t40 -18.5q6 0 19.5 10.5t19.5 10.5q55 20 113 39h74q325 0 324 -299 q0 -16 -1 -33q-2 -8 10.5 -30.5t12.5 -29.5l-17 -32q-6 -14 -6 -78q0 -133 53 -244q-43 -27 -57 -26q-39 0 -100 41q-8 0 -46 -20.5t-46 -20.5q-20 0 -54 18q47 88 47 250q0 31 -2 45q-2 8 -15 33.5t-13 33.5q0 6 13 32t15 35t2 52q0 152 -127 152q-129 0 -129 -156 q0 -18 9 -72q0 -6 11 -20t11 -23q0 -4 -16 -26q-14 -53 -15 -86q0 -164 50 -236l-9 -18q-18 -14 -49 -14q-8 0 -48 20.5t-46 20.5q-8 0 -46 -20.5t-46 -20.5q-20 0 -55 18q55 129 55 264q0 39 -37 98q14 8 25.5 53.5t11.5 67.5q0 150 -131 150t-131 -156q0 -18 13 -63 t24 -52q-37 -43 -37 -102q0 -49 12 -125q16 -86 37 -115v-20q-33 -18 -51 -18q-4 0 -95 41q-8 0 -30.5 -16.5t-26.5 -18.5q-23 -6 -39 -6q-10 0 -51 12q0 2 -3 6t-3 10z" />
<glyph unicode="n" horiz-adv-x="931" d="M231 213q55 123 56 252q0 29 -12.5 66.5t-12.5 43.5t10.5 24.5t12.5 25t2 65.5q0 150 -56 238q31 29 58 28q18 0 61 -18l43 -18l17 8q104 39 206 39q100 0 199 -39q41 -16 76 -63.5t45 -94.5q0 -45 10 -139q2 -18 29 -56q-31 -41 -31 -112q0 -145 55 -230v-20 q-29 -18 -57 -18q-23 0 -64.5 20.5t-35.5 20.5q-16 0 -45 -29q-25 -12 -54 -12q-6 0 -17 3t-17 3q-8 8 -9 20q0 6 4.5 14.5t12.5 28.5q27 115 26 193q0 43 -2 57q-2 8 -15 30.5t-13 30.5q4 4 22 43q8 16 8 76q0 152 -127 152q-129 0 -129 -152q0 -57 15.5 -84.5t15.5 -34.5 q-31 -76 -31 -110q0 -86 27 -189q0 -4 8 -19t8 -24v-26q-23 -12 -43 -12t-59 20l-41 21q-8 0 -49 -20.5t-49 -20.5q-21 0 -58 18z" />
<glyph unicode="o" horiz-adv-x="854" d="M207 582q0 4 14.5 30.5t14.5 40.5q-1 13 -1 26q0 294 326 294q92 0 150 -21q111 -39 157 -139q16 -35 23 -178q2 -6 12 -26.5t10 -26.5q0 -8 -10 -29t-12 -27q0 -51 -17 -159q-23 -86 -124 -136q-86 -43 -187 -43q-256 0 -311 179q-12 43 -16 135q0 12 -14.5 43t-14.5 37 zM432 465q0 -156 125 -156q131 0 131 154q0 61 -16 90q-14 23 -15 29q0 6 13.5 29.5t15.5 33.5t2 55q0 152 -125 152q-131 0 -131 -152q0 -53 8 -77q2 -4 12.5 -18.5t10.5 -20.5q0 -4 -15.5 -43t-15.5 -76z" />
<glyph unicode="p" horiz-adv-x="899" d="M219 -145q45 86 57 215q4 45 5 225q0 168 -2 207q-2 10 -15.5 43t-13.5 39q0 8 10 25.5t12 21.5q8 45 9 53q0 88 -39 207q-16 25 -17 33v24q39 14 56 15q14 0 57 -19l43 -18q-10 0 53 20q82 27 172 27q188 0 275 -101q51 -59 53 -231q0 -8 14.5 -30.5t14.5 -28.5 t-14.5 -30t-14.5 -32v-18q0 -59 -10 -154q-43 -160 -287 -160q-53 0 -152 25q-10 -12 -10 -74q0 -182 62 -284q-14 -12 -58 -27q-29 0 -62 21l-34 22q-6 0 -30.5 -16.5t-30.5 -18.5q-20 -8 -41 -8q-44 0 -62 27zM475 465q0 -63 35 -109.5t96 -46.5q125 0 125 156 q0 59 -16 88q-14 23 -15 29q0 6 13.5 29.5t15.5 33.5t2 51q0 156 -125 156q-131 0 -131 -152q0 -41 14 -84l17 -32q0 -2 -15.5 -41t-15.5 -78z" />
<glyph unicode="q" horiz-adv-x="813" d="M141 582q0 4 13.5 29.5t15.5 35.5q0 57 16 166q23 82 127 125q82 35 183 35q113 0 227 -47q8 0 27.5 12t27.5 14q20 10 43 11q8 0 25.5 -4.5t25.5 -4.5q0 -2 3.5 -8t3.5 -12q0 -2 -19.5 -55.5t-21.5 -67.5q-12 -63 -13 -123q0 -23 6 -63q2 -4 12.5 -19.5t10.5 -23.5 t-14.5 -40t-14.5 -40v-434q0 -92 60 -213q-6 -6 -21 -19q-6 0 -20.5 -4t-22.5 -4t-50 21.5t-50 21.5q-6 0 -27.5 -16.5t-29.5 -18.5q-23 -8 -37 -8q-27 0 -58 20q25 72 35 109q27 94 27 143v107q-4 0 -11.5 3t-11.5 3q-82 -25 -141 -25q-238 0 -287 154q-6 90 -10 172 q0 8 -14.5 34t-14.5 34zM367 463q0 -63 34.5 -108.5t96.5 -45.5q61 0 96 45t35 109q0 90 -37 119q12 8 26 55q10 41 11 63q0 152 -131 152t-131 -152q0 -41 14 -84q2 -4 12 -15t10 -17l-18 -31q-18 -33 -18 -90z" />
<glyph unicode="r" horiz-adv-x="704" d="M203 221q61 102 61 246q0 43 -12 70.5t-12 37.5q0 -6 16 43q8 25 8 70q0 127 -55 227v27q41 14 57 14q25 0 60.5 -18t38.5 -18q6 0 29.5 12t29.5 14q80 20 147 21q100 0 209 -60q10 -6 54 -12q33 -6 32 -12q0 -4 -21.5 -26.5t-25.5 -33.5q-4 -29 -14 -80q-12 0 -21 13 q-68 90 -174 90q-152 0 -151 -156q0 -43 8 -65q2 -4 12 -22.5t10 -27.5q0 -8 -10 -26.5t-12 -24.5q-8 -23 -8 -51q0 -45 18 -123q20 -84 43 -117v-20q-29 -18 -61 -18q-8 0 -47 20.5t-47 20.5t-49.5 -20.5t-49.5 -20.5q-22 -1 -63 26z" />
<glyph unicode="s" horiz-adv-x="806" d="M231 268q18 20 48 58q8 14 10 49l4 49q16 0 20 -6q25 -51 113 -84q68 -25 123 -25q47 0 84 26.5t37 72.5q0 12 -16.5 39.5t-24.5 29.5q-51 20 -78 21q-6 0 -18.5 -3t-18.5 -3t-25 20q-27 25 -30 27q-33 18 -117 65q-29 16 -49 68q-18 45 -19 82q0 119 105 176 q78 43 184 43q63 0 149.5 -36t106.5 -36q25 0 25 6q10 -10 10 -18q0 8 -28.5 -42t-28.5 -110q-27 27 -88 76q-68 39 -140 39q-119 0 -118 -94q0 -94 116 -94q6 0 19.5 3t19.5 3q8 0 25 -21q23 -27 26 -28q115 -57 154 -93q55 -49 55 -127q0 -115 -104 -170q-82 -43 -207 -43 q-70 0 -166 35q-111 39 -158 45z" />
<glyph unicode="t" horiz-adv-x="825" d="M141 793q23 41 23 49q0 10 -23 45q43 -16 90 -17q104 0 105 107q0 66 -25 127q-29 74 -80 96v23q61 25 101 24q8 0 30.5 -6t30.5 -6l58 37q55 37 84 37h55q-59 -137 -60 -324q0 -70 29 -92.5t98 -22.5q90 0 162 41h21v-20q2 -6 -16.5 -24.5t-18.5 -26.5t29 -39v-33 q14 0 13 2q0 4 -62 18q-91 20 -128 21q-70 0 -98.5 -23.5t-28.5 -91.5q0 -57 15.5 -84.5t15.5 -34.5q-31 -51 -31 -112q0 -160 127 -160q98 0 166 98q4 -31 13 -82q4 -8 25.5 -30.5t21.5 -30.5q0 -12 -9 -22q-4 6 -26 6q-37 0 -113 -30t-129 -30q-197 0 -258 160 q-6 16 -14 160q-2 10 -15.5 38.5t-13.5 34.5q0 -31 15.5 30t15.5 89q0 115 -105 115q-39 0 -90 -16z" />
<glyph unicode="u" horiz-adv-x="899" d="M207 918v30q41 14 55 15q29 0 62.5 -21.5t31.5 -21.5q8 0 23.5 13t17.5 13q25 16 58 17q16 0 45 -15v-26q0 -4 -11 -19q-33 -145 -32 -207q0 -37 14 -90q16 -20 16 -24q0 -8 -6 -15q-25 -31 -24 -104q0 -154 129 -154q127 0 127 158q0 43 -31 117q2 6 16 28q14 35 15 76 q0 156 -49 246q4 29 49 29q35 0 98 -43q6 0 23.5 15t25.5 17q23 10 47 11q8 0 26.5 -4.5t29.5 -4.5v-39q0 -4 -16.5 -39.5t-18.5 -46.5q-20 -88 -21 -141q0 -12 15.5 -52t15.5 -52q0 -8 -7 -19.5t-9 -15.5q-8 -29 -11 -96q-4 -129 -106 -201q-88 -63 -223 -64 q-104 0 -189 41q-100 47 -123 138q-16 66 -16 106v39q0 27 -29 70q31 39 31 114q0 27 -2 56q-2 10 -25 114q0 4 -11 24t-11 28z" />
<glyph unicode="v" horiz-adv-x="847" d="M152 942q43 14 55 14q27 0 59 -20l33 -23l43 27q27 16 57 16q45 0 50 -28q-10 -43 -11 -101q0 -90 21 -190q0 -4 33 -129l4 -62q4 -41 20 -51h29q72 276 71 344v170q0 31 8.5 39t39.5 8q33 0 63 -20l31 -23q6 0 26.5 15.5t28.5 17.5q16 10 41 10q8 0 23.5 -4t21.5 -4 q8 -6 8 -16q0 -8 -16.5 -25.5t-18.5 -21.5q-88 -150 -102 -244q2 -31 2 -90q-18 -20 -39 -57q-37 -67 -37 -199q0 -35 2 -74q-4 -8 -29.5 -17t-37.5 -9q-25 0 -101 41q-2 0 -37.5 -20.5t-62.5 -20.5q-29 0 -70 18q4 70 5 98q0 143 -82 244q10 25 10 55q0 96 -141 332z" />
<glyph unicode="w" horiz-adv-x="1341" d="M123 928v20q6 0 24.5 4t26.5 4q47 0 92 -43q76 43 107 43q43 0 45 -22q-10 -47 -10 -105q0 -68 20 -192q12 -45 33 -129l4 -53q2 -27 20 -54h29q18 12 23 52q2 31 2 61l43 154q35 125 34 200q0 31 -6 54q6 35 66 34q43 0 102 -43q8 6 49 33q16 10 56 10q55 0 67 -28 q-8 -31 -8 -68q0 -61 53 -260q10 -35 33 -123q0 -20 4 -65q14 -16 31 -17q4 0 10 2l6 2q4 31 43 209q29 131 29 213q0 53 -10 99q0 4 3 14t3 14q12 8 45 8q16 0 96 -43q68 43 92 43q31 0 52 -8q6 0 6 -14q-6 -8 -47 -68q-72 -104 -91 -225q-2 -14 -1 -27q0 -31 10 -59 q-16 -12 -39 -43q-45 -98 -45 -221q0 -39 6 -72q-27 -18 -68 -18q-33 0 -66.5 17.5t-39.5 17.5t-23 -13q-23 -14 -24 -16q-16 -6 -56 -6q-35 0 -57 6v16q0 129 -61 344q-14 53 -33 183q-4 10 -27 10q-12 0 -24 -17q-4 -78 -17 -127l-51 -204q-17 -85 -17 -153q0 -5 0.5 -14 t0.5 -13q0 -31 -68 -31q-31 0 -64.5 17.5t-35.5 17.5l-37 -18q-37 -17 -68 -17q-55 0 -65 26q4 35 4 74q0 162 -80 260q6 18 6 45q0 70 -45 170q-41 89 -92 152z" />
<glyph unicode="x" horiz-adv-x="798" d="M152 207q86 104 88 254q41 20 102 57q12 8 35.5 38t23.5 42q0 49 -143 121q-6 37 -20.5 109.5t-61.5 115.5v23h76q6 0 30.5 -17.5t30.5 -17.5t26.5 17.5t29.5 17.5h75q-1 -31 0 -54q0 -45 2 -57q6 -33 70 -121h16l74 82q37 41 37 78q0 23 -14 45v27q2 0 11 3t15 3 t46 -20.5t49 -20.5q10 4 57 35l70 -6q-51 -53 -72 -119q-12 -39 -17 -123q-33 -10 -88 -47q-68 -45 -67 -80q0 -29 63 -72q33 -23 74 -47q14 -68 35 -141q4 -14 72 -131h-89q-6 0 -29.5 17.5t-31.5 17.5q23 0 -21 -17.5t-63 -17.5q-33 0 -45 6q0 12 5 38.5t5 39.5 q0 53 -94 172q-4 0 -10 -2q-113 -115 -113 -174q0 -27 17 -54v-20q-6 -6 -33 -6q-31 0 -62 17l-30 18q-6 0 -60 -35z" />
<glyph unicode="y" horiz-adv-x="892" d="M195 934q29 23 61 22q45 0 88 -43q66 43 100 43q29 0 50 -14v-20q0 -4 -11 -19q-33 -135 -32 -207q0 -57 8 -78q2 -4 12 -17t10 -19q0 4 -15 -25t-15 -90q0 -158 124 -158q131 0 132 154q0 41 -31 115q0 8 8 19t8 15q14 43 15 82q0 141 -50 240q27 23 50 22 q23 0 61.5 -21.5t32.5 -21.5q8 0 23.5 13.5t17.5 13.5q27 16 59 16q14 0 55 -14v-27l-8 -18q-33 -80 -39 -117q-2 -8 -2 -84t12.5 -93t12.5 -25t-12.5 -22.5t-12.5 -23.5v-471q0 -41 -32.5 -106.5t-64.5 -87t-98.5 -39.5t-107.5 -18q-80 0 -256 77q-20 2 -67 17q18 18 47 63 q4 27 14 86q31 -14 59.5 -48t51.5 -46q41 -20 122 -20q82 0 113 53q18 33 19 53v152q-10 10 -19 10q-6 0 -34.5 -8.5t-35.5 -10.5h-73q-166 0 -244 80q-41 43 -51 164t-31 141q31 47 31 111q0 137 -55 250z" />
<glyph unicode="z" horiz-adv-x="892" d="M213 207q86 106 88 254q80 35 127 76q18 23 80 94q16 18 53 60t37 73q0 82 -111 82q-129 0 -198 -74q-12 25 -13 53q0 12 8.5 37t8.5 33q0 16 -25 41q12 0 35 -2t33 -2q47 0 145.5 26.5t145.5 26.5q35 0 108 -20q8 -2 37 -17.5t35 -15.5q10 0 61 35l70 -6 q-33 -55 -78 -162q-4 -23 -10 -92q-31 -14 -62 -27q-45 -25 -172 -174q-55 -66 -55 -105q0 -55 37 -71q18 -8 70 -8q168 0 262 86q8 -8 18 -27q4 -18 4 -33q0 -18 -10 -41.5t-10 -30.5q4 -4 24 -45q-20 4 -69 5q-37 0 -146.5 -24t-167.5 -24q-88 0 -188 31q-16 16 -37 17 q-4 0 -76 -35z" />
<glyph unicode="{" horiz-adv-x="741" d="M43 836q0 23 88 87t96 117q31 221 103 371q100 211 252 209q55 0 65 -2q57 -4 60 -19q-66 -35 -109 -34q-70 0 -94 -101q-12 -47 -19 -207q-6 -131 -22 -163l-131 -248q61 -55 127 -111q-4 25 -15 49l19 -69q0 -317 10 -393q35 -258 176 -263l-2 -6q0 -18 46 -19t46 -22 q0 -10 -47 -10l-123 -2q-168 -2 -266 260q-76 205 -76 432q0 33 -184 144z" />
<glyph unicode="}" horiz-adv-x="667" d="M41 12q0 20 45 21.5t45 19.5l-2 6v2q141 2 176 261q10 76 10 391l19 69q-10 -12 -15 -47q16 0 127 111l-131 248q-16 33 -22 163q-6 160 -19 207q-25 100 -94 101q-47 0 -108 37q2 16 61 18q49 2 66 0q150 0 250 -209q70 -147 102 -371q6 -49 95 -113.5t89 -88.5 q-82 -49 -104 -66q-82 -57 -82 -80q-2 -229 -76 -432q-96 -262 -266 -260l-121 2q-45 0 -45 10z" />
<glyph unicode="&#xa1;" horiz-adv-x="432" d="M188 471q0 10 13.5 32.5t15.5 31.5q51 188 51 333q0 70 -6 86q-6 2 115 2q18 0 4 -41q-4 -12 -4 -36q0 -117 51 -347q2 -8 18.5 -30.5t16.5 -26.5q0 -8 -11.5 -26.5t-11.5 -26.5q0 -51 -2 -105q-4 -61 -30.5 -91.5t-81.5 -30.5q-113 0 -113 104q0 8 2 27v26q0 27 -4 45 q-2 6 -12.5 36t-10.5 38zM219 1221q0 43 31 77.5t74 34.5q49 0 77 -41q25 -35 25 -86q0 -141 -102 -141q-105 0 -105 156z" />
<glyph unicode="&#xa2;" horiz-adv-x="757" d="M49 496q0 129 84 231q88 109 215 109q16 0 37 -5l43 154h37l-45 -164q23 -6 49 -16l49 180h37l-55 -197q20 -8 43 -18q35 39 71 49l35 -18q-47 -31 -47 -146q0 -20 2 -53v-41q-51 6 -82 70l-39 88l-164 -604q18 -6 41 -6q84 0 119 63l45 127q29 72 88 84v-137 q0 -27 23.5 -71t23.5 -71l-2 -10q-59 0 -100 47l-90 -35q-27 -12 -107 -12q-25 0 -47 2l-37 -145h-36l39 151q-25 4 -48 15l-45 -166h-36l47 182q-148 87 -148 363zM244 307l135 498h-10q-51 0 -88 -33t-37 -84v-381zM256 207q4 -23 14 -39q8 -18 21 -31l168 627 q-20 23 -45 33zM612 383h2q0 4 -2 0z" />
<glyph unicode="&#xaa;" d="M207 389q0 123 117 182l73 37q8 4 36 33t36 29q6 0 18.5 -3t18.5 -3q117 0 117 94q0 43 -33 68.5t-76 25.5q-123 0 -231 -117q-4 33 -17 94q-20 23 -47 68q25 -2 64 4q100 49 131 57q47 14 123 15q201 0 266 -131q20 -39 20 -90v-111q2 -6 16.5 -29.5t14.5 -29.5 q0 29 -15.5 -30.5t-15.5 -84.5q0 -59 19 -141q35 -88 35 -86v-27q-33 -12 -54 -12q-33 0 -91 26.5t-50 26.5q4 0 -49 -35q-66 -31 -160 -31q-113 0 -182 43q-84 52 -84 158zM408 403q0 -41 29.5 -67.5t70.5 -26.5q31 0 67 17q45 20 46 47v168h-27q-18 0 -89 -36t-84 -52.5 t-13 -49.5z" />
<glyph unicode="&#xb2;" d="M219 223q0 2 41 66q23 35 55 98q10 33 78 143q55 92 56 142q0 37 -23 67q74 41 129 127t55 166q0 137 -149 137q-104 0 -154 -67q-14 27 -14 49q0 10 12 45t12 45q0 8 -14 26.5t-16 24.5q12 -2 57 -2l238 43q254 -10 254 -211q0 -66 -29 -135q-12 -33 -68 -139 q-8 -14 -12 -49q-4 -29 10 -105q-29 -2 -78 -55q-18 -20 -73.5 -115.5t-55.5 -113.5q0 -63 132 -64q141 0 186 70q10 2 16 2q12 -39 13 -53q0 -12 -11.5 -45t-11.5 -44q0 -8 10 -24q10 -23 13 -27q-51 4 -154 -14q-111 -23 -156 -23q-41 0 -120.5 24t-69.5 24l-38 -18 q-38 -17 -65 -17q-31 0 -43 6t-12 16z" />
<glyph unicode="&#xb3;" horiz-adv-x="825" d="M215 201v22q10 0 21 17q-16 82 -17 75q0 12 13.5 54.5t21.5 50.5q113 -98 246 -98q152 0 151 122q0 23 -12 46.5t-12 25.5q2 8 16 29q8 16 8 51q0 111 -137 111q-45 0 -53 -5q-18 -4 -74 -32h-20q4 29 34 69q-10 14 -34 54v28q53 -33 69 -39q29 -10 78 -10q139 0 139 105 q0 29 -12 63q0 2 5 6t5 12l-8 7q8 33 8 61q0 119 -157 119q-152 0 -197 -86q-4 0 -16 2q-18 37 -19 72q0 37 31 88q-12 14 -37 36q10 0 30.5 -2t30.5 -2q31 0 111 28t111 28q193 0 262 -105q23 -35 36 -114.5t29 -100.5q-16 -16 -32 -110q-14 -82 -74 -111q-31 -6 -43 -10 q-31 -10 -35 -23q92 -33 94 -35q55 -27 74 -69q4 -33 16 -92q16 -31 17 -41q0 -6 -7.5 -17.5t-9.5 -15.5q2 -43 -4 -86q-16 -100 -61 -139q-86 -76 -240 -76q-51 0 -145 24.5t-140 24.5q-28 0 -61 -12z" />
<glyph unicode="&#xb9;" horiz-adv-x="495" d="M170 1237q10 27 104.5 64.5t131.5 37.5h110q10 -10 6 -26q-53 -186 -53 -303q0 -68 14 -136q2 -14 21.5 -60t19.5 -54q0 -4 -19.5 -55.5t-21.5 -63.5q-14 -63 -14 -133t25 -174q20 -86 36 -119q-18 -20 -57 -20q-33 0 -64.5 20.5t-33.5 20.5q-6 0 -15 -7q-10 -12 -14 -16 q-31 -18 -72 -18q-8 0 -24.5 3t-22.5 3q-4 16 12.5 67t20.5 70q14 49 14 170v90q-4 41 -32 121q-2 4 -12.5 17.5t-10.5 21.5q0 6 19.5 43t21.5 49q14 63 14 145q0 174 -104 242z" />
<glyph unicode="&#xba;" horiz-adv-x="854" d="M207 582q0 4 14.5 30.5t14.5 40.5q-1 13 -1 26q0 294 326 294q92 0 150 -21q111 -39 157 -139q16 -35 23 -178q2 -6 12 -26.5t10 -26.5q0 -8 -10 -29t-12 -27q0 -51 -17 -159q-23 -86 -124 -136q-86 -43 -187 -43q-256 0 -311 179q-12 43 -16 135q0 12 -14.5 43t-14.5 37 zM432 465q0 -156 125 -156q131 0 131 154q0 61 -16 90q-14 23 -15 29q0 6 13.5 29.5t15.5 33.5t2 55q0 152 -125 152q-131 0 -131 -152q0 -53 8 -77q2 -4 12.5 -18.5t10.5 -20.5q0 -4 -15.5 -43t-15.5 -76z" />
<glyph unicode="&#x152;" horiz-adv-x="1660" d="M1061 221q35 100 41 135q20 119 21 160q0 55 -24.5 144.5t-24.5 121.5q0 6 13 38t15 42q20 98 21 160q0 43 -19 135q-18 102 -37 123v27q27 14 52 14q41 0 63 -14q0 -4 15.5 -16.5t21.5 -12.5t42 21.5t46 25.5q43 8 80 8q47 0 130 -24.5t124 -24.5q29 0 59 12 q-2 -8 -15 -24.5t-13 -24.5q0 -10 11 -41.5t11 -42.5q0 -25 -12 -67q-4 0 -15 -6q-82 86 -206 86q-104 0 -131 -54q-12 -25 -13 -133q0 -115 13 -139q25 -47 127 -47q51 0 67 6q10 0 94 37q-2 -14 -17 -42t-15 -32q0 -8 13 -34.5t15 -37.5h-24q-6 2 -27 17q-41 18 -106 18 q-106 0 -132 -67q-8 -23 -8 -127q0 -111 13 -138q25 -51 131 -51q63 0 114 21q31 23 99 71q27 -66 27 -102q0 -11 -3 -18q-14 -47 -14 -54l35 -34q-59 6 -78 6q-39 0 -122 -23.5t-128 -23.5q-61 0 -102 12q-70 35 -66 35q-4 0 -42 -20.5t-62 -20.5q-40 0 -58 20zM158 770 q0 6 15 36t15 38v198q0 39 32 110t63 99q90 88 241 88q74 0 146 -26q172 -66 194 -283q4 -36 4 -96q0 -40 -2 -92q0 -10 14.5 -38t14.5 -34q0 -8 -10.5 -23.5t-12.5 -19.5v-221q0 -16 -12 -41q-4 -43 -10 -80q-37 -190 -320 -190q-297 0 -331 227q-10 66 -11 49v231 q0 6 -15 33t-15 35zM383 592q0 -109 16 -154q31 -86 127 -86q100 0 129 80q14 39 15 158q0 92 -2 104.5t-15.5 40t-13.5 35.5q0 6 14.5 36t14.5 42q2 37 2 102q0 113 -15 150q-31 76 -129 76q-96 0 -127 -84q-16 -45 -16 -146q0 -86 8 -123q2 -8 15.5 -25.5t13.5 -25.5 q0 -6 -10.5 -20.5t-12.5 -18.5q-14 -47 -14 -141z" />
<glyph unicode="&#x153;" horiz-adv-x="1660" d="M1036 578q0 6 11.5 27.5t11.5 29.5q2 70 6 100q8 59 29 96q78 141 299 142q133 0 223 -66q104 -74 104 -200q0 -8 -24 -84q6 -16 10 -48v-40q-51 39 -104 43q8 0 -121 0q-18 0 -54 2t-55 2q-111 0 -110 -117q0 -156 141 -156q166 0 221 111q8 -33 23 -94q20 -10 41 -43 v-21q-18 2 -43 -4q-147 -70 -254 -70q-162 0 -250 86q-81 79 -81 220q0 13 1 26q0 6 -12.5 28t-12.5 30zM1262 727q0 -94 131 -94q125 0 125 96q0 55 -35 89t-90 34q-57 0 -94 -35t-37 -90zM207 582q0 4 14.5 30.5t14.5 40.5q-1 13 -1 26q0 294 326 294q92 0 150 -21 q111 -39 157 -139q16 -35 23 -178q2 -6 12 -26.5t10 -26.5q0 -8 -10 -29t-12 -27q0 -51 -17 -159q-23 -86 -124 -136q-86 -43 -187 -43q-256 0 -311 179q-12 43 -16 135q0 12 -14.5 43t-14.5 37zM432 465q0 -156 125 -156q131 0 131 154q0 61 -16 90q-14 23 -15 29 q0 6 13.5 29.5t15.5 33.5t2 55q0 152 -125 152q-131 0 -131 -152q0 -53 8 -77q2 -4 12.5 -18.5t10.5 -20.5q0 -4 -15.5 -43t-15.5 -76z" />
<glyph unicode="&#x2000;" />
<glyph unicode="&#x2001;" horiz-adv-x="1638" />
<glyph unicode="&#x2002;" />
<glyph unicode="&#x2003;" horiz-adv-x="1638" />
<glyph unicode="&#x2004;" horiz-adv-x="544" />
<glyph unicode="&#x2005;" horiz-adv-x="409" />
<glyph unicode="&#x2006;" horiz-adv-x="272" />
<glyph unicode="&#x2007;" horiz-adv-x="272" />
<glyph unicode="&#x2008;" horiz-adv-x="204" />
<glyph unicode="&#x2009;" horiz-adv-x="327" />
<glyph unicode="&#x200a;" horiz-adv-x="90" />
<glyph unicode="&#x2013;" horiz-adv-x="1024" d="M205 512v205h614v-205h-614z" />
<glyph unicode="&#x2014;" horiz-adv-x="2048" d="M205 512v205h1638v-205h-1638z" />
<glyph unicode="&#x2019;" horiz-adv-x="614" d="M201 1114q0 6 10 20.5t12 20.5q0 39 23 127q8 18 35.5 31.5t50.5 13.5q16 0 43.5 -12t36.5 -27q18 -33 32 -100q12 -55 13 -74q0 -8 -10.5 -26.5t-12.5 -24.5t-2 -35q0 -43 21.5 -68.5t43 -50t21.5 -51.5q0 -20 -16 -37q2 33 -10 51q-8 12 -41 39t-39 27l-26 -18 q-26 -18 -54 -19q-102 0 -109 168q0 4 -11 20.5t-11 24.5z" />
<glyph unicode="&#x201c;" horiz-adv-x="1228" d="M201 1114q0 6 10 20.5t12 20.5q0 39 23 127q8 18 35.5 31.5t50.5 13.5q16 0 43.5 -12t36.5 -27q18 -33 32 -100q12 -55 13 -74q0 -8 -10.5 -26.5t-12.5 -24.5t-2 -35q0 -43 21.5 -68.5t43 -50t21.5 -51.5q0 -20 -16 -37q2 33 -10 51q-8 12 -41 39t-39 27l-26 -18 q-26 -18 -54 -19q-102 0 -109 168q0 4 -11 20.5t-11 24.5zM530 1114q0 6 10.5 20.5t12.5 20.5q0 39 22 127q6 18 35 31.5t52 13.5q16 0 43.5 -12t35.5 -27q16 -33 33 -100q12 -55 12 -74q0 -8 -10 -26.5t-12 -24.5t-2 -35q0 -43 21.5 -68.5t43 -50t21.5 -51.5q0 -20 -17 -37 q2 33 -10 51q-8 12 -40.5 39t-39.5 27l-25 -18q-26 -18 -54 -19q-104 0 -109 168q0 4 -11.5 20.5t-11.5 24.5z" />
<glyph unicode="&#x201d;" horiz-adv-x="1228" d="M201 1114q0 6 10 20.5t12 20.5q0 39 23 127q8 18 35.5 31.5t50.5 13.5q16 0 43.5 -12t36.5 -27q18 -33 32 -100q12 -55 13 -74q0 -8 -10.5 -26.5t-12.5 -24.5t-2 -35q0 -43 21.5 -68.5t43 -50t21.5 -51.5q0 -20 -16 -37q2 33 -10 51q-8 12 -41 39t-39 27l-26 -18 q-26 -18 -54 -19q-102 0 -109 168q0 4 -11 20.5t-11 24.5zM530 1114q0 6 10.5 20.5t12.5 20.5q0 39 22 127q6 18 35 31.5t52 13.5q16 0 43.5 -12t35.5 -27q16 -33 33 -100q12 -55 12 -74q0 -8 -10 -26.5t-12 -24.5t-2 -35q0 -43 21.5 -68.5t43 -50t21.5 -51.5q0 -20 -17 -37 q2 33 -10 51q-8 12 -40.5 39t-39.5 27l-25 -18q-26 -18 -54 -19q-104 0 -109 168q0 4 -11.5 20.5t-11.5 24.5z" />
<glyph unicode="&#x2026;" horiz-adv-x="1296" d="M1071 401q0 -6 22 39l17 111q18 63 90 63q25 0 56.5 -20.5t37.5 -42.5q0 -31 4 -74q2 -10 15.5 -40.5t13.5 -39.5q0 -6 -10.5 -24.5t-12.5 -24.5q-2 -25 -10 -90q-2 -27 -35 -48.5t-59 -21.5q-102 0 -107 166q0 6 -11 22.5t-11 24.5zM639 401q0 -6 22 39l17 111 q18 63 90 63q25 0 56.5 -20.5t37.5 -42.5q0 -31 4 -74q2 -10 15.5 -40.5t13.5 -39.5q0 -6 -10.5 -24.5t-12.5 -24.5q-2 -25 -10 -90q-2 -27 -35 -48.5t-59 -21.5q-102 0 -107 166q0 6 -11 22.5t-11 24.5zM207 401q0 -6 22 39l17 111q18 63 90 63q25 0 56.5 -20.5t37.5 -42.5 q0 -31 4 -74q2 -10 15.5 -40.5t13.5 -39.5q0 -6 -10.5 -24.5t-12.5 -24.5q-2 -25 -10 -90q-2 -27 -35 -48.5t-59 -21.5q-102 0 -107 166q0 6 -11 22.5t-11 24.5z" />
<glyph unicode="&#x202f;" horiz-adv-x="327" />
<glyph unicode="&#x205f;" horiz-adv-x="409" />
<glyph unicode="&#x2122;" horiz-adv-x="585" d="M61 893q0 8 2 10q4 6 9 10q2 6 2 5q0 2 -5 8l-6 6q-2 6 -2 10q0 6 7 6q-10 0 12 -3t33 -3q25 0 39 2q23 6 18 6q4 0 18.5 -4t18.5 -4h18q29 0 49 6q4 -4 5 -8q0 -2 -5.5 -11t-5.5 -11t5.5 -12.5t5.5 -12.5q0 2 -3 -10q0 -2 -4 -2l-5 3q-5 3 -7 3q-18 8 -37 8 q-18 0 -28 -6q0 -23 4 -43q0 -2 5 -15.5t5 -15.5q0 10 -4 -1t-6 -30q-4 -23 -4 -32q0 -35 14 -74q-8 -4 -14 -4q-10 0 -25 10q8 0 -6 -5t-19 -5q-2 0 -6 1t-6 1q-2 2 -2 4t2 7t4 7q8 39 8 56q0 14 -7 42.5t-7 24.5l3 7q3 7 3 10q8 29 8 51v3v3q-12 4 -28 4q-6 0 -33 -6 q-2 0 -12 -6h-9q-2 2 -2 10zM291 686v6l4 10l4 11q6 16 6 49v22q0 10 -8 31q0 2 -3 5t-3 5t4 9l4 10q6 12 6 45q0 41 -14 72q14 4 20 4q29 0 39 -13q6 4 15 9q16 6 28 6q2 0 9.5 -2t11.5 -2q0 4 -4 -9.5t-4 -21.5q0 -39 32 -125q6 2 8 12q2 6 5 17q8 23 18 61q4 14 4 37 q0 4 -2 16l-6 13q4 0 11 2t11 2q29 0 41 -15q10 12 39 13q2 0 9.5 -1t9.5 -1q0 -6 -2 -17q-6 -12 -6 -14q-4 -20 -5 -41q0 -25 7 -43q0 -2 6 -11.5t6 -11.5q0 2 -8 -14q-8 -23 -11 -29v-22q0 -43 15 -68v-6q-6 -2 -13 -2q-8 0 -22 10q-14 -10 -23 -10q-10 0 -16 4 q8 12 16 53l-2 170q-2 0 -6 -4l-20 -43q-12 -27 -19 -47q2 -10 2 -33q0 -2 -5 -7t-7 -9q-8 -12 -8 -41v-22q2 -2 4 -7.5t2 -7.5v-6q-2 -2 -6 -2q-10 0 -14 2l-5 4q-4 4 -6 4t-11 -5t-11 -5h-8q-4 0 -4 2t2 6q8 18 8 35q0 25 -8 41q-4 6 -15 22q2 6 2 15q0 18 -14 49 q-20 45 -23 49q-2 4 -6 10q-2 0 -2 -2v-172q0 -4 5 -22.5t7 -22.5v-6q-6 -2 -14 -2t-14 4t-8 4l-9 -4q-8 -4 -14 -4q-4 0 -12 2z" />
<glyph unicode="&#xe000;" horiz-adv-x="975" d="M0 975h975v-975h-975v975z" />
<glyph unicode="&#xfb01;" horiz-adv-x="1398" d="M1124 221q57 106 57 246q0 49 -15 77.5t-15 30.5q0 -2 16 31q14 49 14 76q0 143 -55 233v27q41 14 57 14q33 0 66 -21l33 -22q8 0 23.5 13.5t17.5 13.5q25 16 53 16q8 0 26.5 -4t26.5 -4q0 -2 4 -5t4 -11q0 -6 -24.5 -75t-28.5 -93q-8 -61 -8 -86l8 -53q0 -6 11.5 -22.5 t11.5 -24.5q0 -6 -11.5 -24.5t-11.5 -27.5q-8 -47 -8 -59q0 -137 49 -234v-20q-37 -18 -49 -18q-8 0 -49 20.5t-49 20.5q-6 0 -29 -16.5t-27 -18.5q-23 -6 -39 -6t-57 12q0 6 -2 14zM1169 1190q0 10 10 31q0 29 17 82q12 16 53 34q6 2 35 2q111 0 110 -145q0 -16 -13 -67.5 t-21 -59.5q-41 -20 -76 -20q-31 0 -62.5 17t-38.5 46q-2 18 -4 55q-10 17 -10 25zM135 793q27 27 27 51q0 18 -21 20v25q37 -18 84 -19q31 0 64 15q41 18 41 45v168q0 53 32 104q80 125 271 125q74 0 137 -29q86 -39 104 -43q8 -2 46 -2q6 0 6 -14q0 -4 -21.5 -27.5 t-25.5 -33.5q-4 -29 -17 -88q-74 76 -88 86q-43 31 -112 30q-94 0 -121 -71q-10 -29 -11 -119q0 -82 7 -98q18 -47 96 -48q35 0 82 17q61 20 78 24v-20q0 -6 -18.5 -23.5t-18.5 -25.5l30 -47v-29h-20q-6 0 -36 16.5t-39 18.5t-54 2q-74 0 -90.5 -23.5t-16.5 -89.5 q0 -51 9 -84l8 -10q8 -12 8 -21q0 -8 -11.5 -30.5t-12.5 -31.5t-1 -50q0 -117 56 -242q0 -8 -15 -20q-8 0 -22 -3t-23 -3q-39 0 -100 41q-6 0 -28.5 -16.5t-26.5 -18.5q-23 -6 -39 -6q-27 0 -58 18v20l17 25q39 119 39 205q0 45 -15.5 81t-15.5 31q0 -2 23 43q8 25 8 72 q0 66 -20.5 89.5t-84.5 23.5q-39 0 -90 -10z" />
<glyph unicode="&#xfb02;" horiz-adv-x="1376" d="M1095 213v20q0 4 13.5 26t15.5 30q27 100 27 178q0 31 -12.5 65.5t-12.5 42.5q0 6 12.5 30t12.5 32v485q0 18 -22.5 89t-33.5 81v23q41 12 62 12q25 0 96 -43q8 0 23 14l16 15q25 14 57 14q16 0 56 -12q2 -4 2 -10q0 -4 -28 -77t-28 -196v-348q0 -53 15.5 -77.5 t15.5 -31.5q0 -8 -13 -27.5t-15.5 -26.5t-2.5 -54q0 -152 62 -246q-4 -4 -32 -15t-36 -11t-46 20.5t-46 20.5q-2 0 -37 -20.5t-63 -20.5q-27 0 -58 18zM135 793q27 27 27 51q0 18 -21 20v25q37 -18 84 -19q31 0 64 15q41 18 41 45v168q0 53 32 104q80 125 271 125 q74 0 137 -29q86 -39 104 -43q8 -2 46 -2q6 0 6 -14q0 -4 -21.5 -27.5t-25.5 -33.5q-4 -29 -17 -88q-74 76 -88 86q-43 31 -112 30q-94 0 -121 -71q-10 -29 -11 -119q0 -82 7 -98q18 -47 96 -48q35 0 82 17q61 20 78 24v-20q0 -6 -18.5 -23.5t-18.5 -25.5l30 -47v-29h-20 q-6 0 -36 16.5t-39 18.5t-54 2q-74 0 -90.5 -23.5t-16.5 -89.5q0 -51 9 -84l8 -10q8 -12 8 -21q0 -8 -11.5 -30.5t-12.5 -31.5t-1 -50q0 -117 56 -242q0 -8 -15 -20q-8 0 -22 -3t-23 -3q-39 0 -100 41q-6 0 -28.5 -16.5t-26.5 -18.5q-23 -6 -39 -6q-27 0 -58 18v20l17 25 q39 119 39 205q0 45 -15.5 81t-15.5 31q0 -2 23 43q8 25 8 72q0 66 -20.5 89.5t-84.5 23.5q-39 0 -90 -10z" />
<glyph unicode="&#xfb03;" horiz-adv-x="2263" d="M1989 221q57 106 57 246q0 49 -15 77.5t-15 30.5q0 -2 16 31q14 49 14 76q0 143 -55 233v27q41 14 57 14q33 0 66 -21l33 -22q8 0 23.5 13.5t17.5 13.5q25 16 53 16q8 0 26.5 -4t26.5 -4q0 -2 4 -5t4 -11q0 -6 -24.5 -75t-28.5 -93q-8 -61 -8 -86l8 -53q0 -6 11.5 -22.5 t11.5 -24.5q0 -6 -11.5 -24.5t-11.5 -27.5q-8 -47 -8 -59q0 -137 49 -234v-20q-37 -18 -49 -18q-8 0 -49 20.5t-49 20.5q-6 0 -29 -16.5t-27 -18.5q-23 -6 -39 -6t-57 12q0 6 -2 14zM2034 1190q0 10 10 31q0 29 17 82q12 16 53 34q6 2 35 2q111 0 110 -145q0 -16 -13 -67.5 t-21 -59.5q-41 -20 -76 -20q-31 0 -62.5 17t-38.5 46q-2 18 -4 55q-10 17 -10 25zM999 793q27 27 27 51q0 18 -21 20v25q37 -18 84 -19q31 0 64 15q41 18 41 45v168q0 53 32 104q80 125 271 125q74 0 137 -29q86 -39 104 -43q8 -2 46 -2q6 0 6 -14q0 -4 -21.5 -27.5 t-25.5 -33.5q-4 -29 -17 -88q-74 76 -88 86q-43 31 -112 30q-94 0 -121 -71q-10 -29 -11 -119q0 -82 7 -98q18 -47 96 -48q35 0 82 17q61 20 78 24v-20q0 -6 -18.5 -23.5t-18.5 -25.5l30 -47v-29h-20q-6 0 -36 16.5t-39 18.5t-54 2q-74 0 -90.5 -23.5t-16.5 -89.5 q0 -51 9 -84l8 -10q8 -12 8 -21q0 -8 -11.5 -30.5t-12.5 -31.5t-1 -50q0 -117 56 -242q0 -8 -15 -20q-8 0 -22 -3t-23 -3q-39 0 -100 41q-6 0 -28.5 -16.5t-26.5 -18.5q-23 -6 -39 -6q-27 0 -58 18v20l17 25q39 119 39 205q0 45 -15.5 81t-15.5 31q0 -2 23 43q8 25 8 72 q0 66 -20.5 89.5t-84.5 23.5q-39 0 -90 -10zM135 793q27 27 27 51q0 18 -21 20v25q37 -18 84 -19q31 0 64 15q41 18 41 45v168q0 53 32 104q80 125 271 125q74 0 137 -29q86 -39 104 -43q8 -2 46 -2q6 0 6 -14q0 -4 -21.5 -27.5t-25.5 -33.5q-4 -29 -17 -88q-74 76 -88 86 q-43 31 -112 30q-94 0 -121 -71q-10 -29 -11 -119q0 -82 7 -98q18 -47 96 -48q35 0 82 17q61 20 78 24v-20q0 -6 -18.5 -23.5t-18.5 -25.5l30 -47v-29h-20q-6 0 -36 16.5t-39 18.5t-54 2q-74 0 -90.5 -23.5t-16.5 -89.5q0 -51 9 -84l8 -10q8 -12 8 -21q0 -8 -11.5 -30.5 t-12.5 -31.5t-1 -50q0 -117 56 -242q0 -8 -15 -20q-8 0 -22 -3t-23 -3q-39 0 -100 41q-6 0 -28.5 -16.5t-26.5 -18.5q-23 -6 -39 -6q-27 0 -58 18v20l17 25q39 119 39 205q0 45 -15.5 81t-15.5 31q0 -2 23 43q8 25 8 72q0 66 -20.5 89.5t-84.5 23.5q-39 0 -90 -10z" />
<glyph unicode="&#xfb04;" horiz-adv-x="2240" d="M1960 213v20q0 4 13.5 26t15.5 30q27 100 27 178q0 31 -12.5 65.5t-12.5 42.5q0 6 12.5 30t12.5 32v485q0 18 -22.5 89t-33.5 81v23q41 12 62 12q25 0 96 -43q8 0 23 14l16 15q25 14 57 14q16 0 56 -12q2 -4 2 -10q0 -4 -28 -77t-28 -196v-348q0 -53 15.5 -77.5 t15.5 -31.5q0 -8 -13 -27.5t-15.5 -26.5t-2.5 -54q0 -152 62 -246q-4 -4 -32 -15t-36 -11t-46 20.5t-46 20.5q-2 0 -37 -20.5t-63 -20.5q-27 0 -58 18zM999 793q27 27 27 51q0 18 -21 20v25q37 -18 84 -19q31 0 64 15q41 18 41 45v168q0 53 32 104q80 125 271 125 q74 0 137 -29q86 -39 104 -43q8 -2 46 -2q6 0 6 -14q0 -4 -21.5 -27.5t-25.5 -33.5q-4 -29 -17 -88q-74 76 -88 86q-43 31 -112 30q-94 0 -121 -71q-10 -29 -11 -119q0 -82 7 -98q18 -47 96 -48q35 0 82 17q61 20 78 24v-20q0 -6 -18.5 -23.5t-18.5 -25.5l30 -47v-29h-20 q-6 0 -36 16.5t-39 18.5t-54 2q-74 0 -90.5 -23.5t-16.5 -89.5q0 -51 9 -84l8 -10q8 -12 8 -21q0 -8 -11.5 -30.5t-12.5 -31.5t-1 -50q0 -117 56 -242q0 -8 -15 -20q-8 0 -22 -3t-23 -3q-39 0 -100 41q-6 0 -28.5 -16.5t-26.5 -18.5q-23 -6 -39 -6q-27 0 -58 18v20l17 25 q39 119 39 205q0 45 -15.5 81t-15.5 31q0 -2 23 43q8 25 8 72q0 66 -20.5 89.5t-84.5 23.5q-39 0 -90 -10zM135 793q27 27 27 51q0 18 -21 20v25q37 -18 84 -19q31 0 64 15q41 18 41 45v168q0 53 32 104q80 125 271 125q74 0 137 -29q86 -39 104 -43q8 -2 46 -2q6 0 6 -14 q0 -4 -21.5 -27.5t-25.5 -33.5q-4 -29 -17 -88q-74 76 -88 86q-43 31 -112 30q-94 0 -121 -71q-10 -29 -11 -119q0 -82 7 -98q18 -47 96 -48q35 0 82 17q61 20 78 24v-20q0 -6 -18.5 -23.5t-18.5 -25.5l30 -47v-29h-20q-6 0 -36 16.5t-39 18.5t-54 2q-74 0 -90.5 -23.5 t-16.5 -89.5q0 -51 9 -84l8 -10q8 -12 8 -21q0 -8 -11.5 -30.5t-12.5 -31.5t-1 -50q0 -117 56 -242q0 -8 -15 -20q-8 0 -22 -3t-23 -3q-39 0 -100 41q-6 0 -28.5 -16.5t-26.5 -18.5q-23 -6 -39 -6q-27 0 -58 18v20l17 25q39 119 39 205q0 45 -15.5 81t-15.5 31q0 -2 23 43 q8 25 8 72q0 66 -20.5 89.5t-84.5 23.5q-39 0 -90 -10z" />
</font>
</defs>
</svg>
